<?xml version="1.0" encoding="UTF-8"?>
<svg width="16px" height="16px" viewBox="0 0 16 16" version="1.1" xmlns="http://www.w3.org/2000/svg" xmlns:xlink="http://www.w3.org/1999/xlink">
    <title>反馈</title>
    <g id="页面-1" stroke="none" stroke-width="1" fill="none" fill-rule="evenodd">
        <g id="画板" transform="translate(-240.000000, -336.000000)" fill="#FFFFFF" fill-rule="nonzero">
            <path d="M252.09117,336.0075 C253.42117,336.0075 254.23117,336.8175 254.25117,338.1075 C254.26117,338.8775 254.26117,339.6475 254.25117,340.4075 C254.25117,340.6475 254.31117,340.7775 254.54117,340.8775 C255.58117,341.3075 256.02117,342.0675 256.00117,343.1775 C255.96117,345.3675 255.99117,347.5575 255.99117,349.7475 C255.99117,351.2375 255.21117,351.9875 253.67117,351.9875 L247.98117,351.9875 L247.98117,351.9875 C246.08117,351.9875 244.19117,351.9675 242.29117,351.9975 C240.95117,352.0175 239.96117,351.1875 240.00117,349.7575 C240.06117,347.5175 240.03117,345.2675 240.01117,343.0175 C239.99117,341.9975 240.42117,341.2775 241.37117,340.8875 C241.71117,340.7475 241.79117,340.5575 241.78117,340.2175 C241.76117,339.5075 241.77117,338.7975 241.78117,338.0875 C241.80117,336.7875 242.60117,336.0075 243.94117,336.0075 C246.66117,335.9975 249.37117,335.9975 252.09117,336.0075 Z M241.03117,343.1675 L241.03117,349.7275 L241.03117,349.7275 C241.03117,350.6475 241.35117,350.9575 242.29117,350.9575 L253.71117,350.9575 L253.71117,350.9575 C254.63117,350.9575 254.97117,350.6175 254.97117,349.7175 L254.97117,343.5875 L254.97117,343.5875 C254.97117,343.4575 254.96117,343.3375 254.95117,343.1975 C254.87117,343.2275 254.82117,343.2275 254.79117,343.2475 C252.65117,344.4475 250.51117,345.6575 248.36117,346.8475 C248.18117,346.9475 247.85117,346.9675 247.67117,346.8675 C245.57117,345.7075 243.49117,344.5275 241.40117,343.3475 C241.30117,343.2975 241.19117,343.2475 241.03117,343.1675 Z M252.02117,337.0275 L244.01117,337.0275 L244.01117,337.0275 C243.15117,337.0375 242.81117,337.3575 242.81117,338.1875 C242.80117,339.6475 242.82117,341.1175 242.80117,342.5775 C242.79117,342.8875 242.91117,343.0375 243.17117,343.1875 C244.67117,344.0175 246.17117,344.8575 247.66117,345.7075 C247.92117,345.8475 248.10117,345.8475 248.35117,345.6975 C249.85117,344.8375 251.36117,343.9875 252.87117,343.1375 C253.10117,343.0075 253.21117,342.8775 253.20117,342.5975 C253.19117,341.1275 253.20117,339.6475 253.20117,338.1675 C253.19117,337.3575 252.85117,337.0375 252.02117,337.0275 Z M254.24215,341.705939 L254.24215,342.4525 L254.794537,342.07922 L254.24215,341.705939 Z M241.776193,341.705939 L241.223807,342.07922 L241.776193,342.4525 L241.776193,341.705939 Z M250.44117,341.4575 C250.88117,341.4575 251.16117,341.6575 251.13117,341.9575 C251.08117,342.3275 250.82117,342.4475 250.46117,342.4475 C248.84117,342.4375 247.22117,342.4375 245.59117,342.4475 C245.25117,342.4475 244.96117,342.3675 244.95117,341.9575 C244.93117,341.6175 245.14117,341.4575 245.62117,341.4575 L250.44117,341.4575 L250.44117,341.4575 Z M250.37117,339.1375 C250.46117,339.1375 250.55117,339.1375 250.64117,339.1575 C250.92117,339.2275 251.15117,339.3775 251.12117,339.6875 C251.09117,340.0075 250.87117,340.1675 250.54117,340.1675 L245.62117,340.1675 L245.62117,340.1675 C245.15117,340.1575 244.93117,339.9975 244.95117,339.6475 C244.97117,339.2275 245.28117,339.1375 245.63117,339.1375 L250.37117,339.1375 L250.37117,339.1375 Z" id="反馈"></path>
        </g>
    </g>
</svg>