<?xml version="1.0" encoding="UTF-8"?>
<svg width="16px" height="16px" viewBox="0 0 16 16" version="1.1" xmlns="http://www.w3.org/2000/svg" xmlns:xlink="http://www.w3.org/1999/xlink">
    <title>反馈</title>
    <g id="页面-1" stroke="none" stroke-width="1" fill="none" fill-rule="evenodd">
        <g id="画板" transform="translate(-83.000000, -310.000000)" fill="#646464" fill-rule="nonzero">
            <path d="M95.0911701,310.0075 C96.4211701,310.0075 97.2311701,310.8175 97.2511701,312.1075 C97.2611701,312.8775 97.2611701,313.6475 97.2511701,314.4075 C97.2511701,314.6475 97.3111701,314.7775 97.5411701,314.8775 C98.5811701,315.3075 99.0211701,316.0675 99.0011701,317.1775 C98.9611701,319.3675 98.9911701,321.5575 98.9911701,323.7475 C98.9911701,325.2375 98.2111701,325.9875 96.6711701,325.9875 L90.9811701,325.9875 L90.9811701,325.9875 C89.0811701,325.9875 87.1911701,325.9675 85.2911701,325.9975 C83.9511701,326.0175 82.9611701,325.1875 83.0011701,323.7575 C83.0611701,321.5175 83.0311701,319.2675 83.0111701,317.0175 C82.9911701,315.9975 83.4211701,315.2775 84.3711701,314.8875 C84.7111701,314.7475 84.7911701,314.5575 84.7811701,314.2175 C84.7611701,313.5075 84.7711701,312.7975 84.7811701,312.0875 C84.8011701,310.7875 85.6011701,310.0075 86.9411701,310.0075 C89.6611701,309.9975 92.3711701,309.9975 95.0911701,310.0075 Z M84.0311701,317.1675 L84.0311701,323.7275 L84.0311701,323.7275 C84.0311701,324.6475 84.3511701,324.9575 85.2911701,324.9575 L96.7111701,324.9575 L96.7111701,324.9575 C97.6311701,324.9575 97.9711701,324.6175 97.9711701,323.7175 L97.9711701,317.5875 L97.9711701,317.5875 C97.9711701,317.4575 97.9611701,317.3375 97.9511701,317.1975 C97.8711701,317.2275 97.8211701,317.2275 97.7911701,317.2475 C95.6511701,318.4475 93.5111701,319.6575 91.3611701,320.8475 C91.1811701,320.9475 90.8511701,320.9675 90.6711701,320.8675 C88.5711701,319.7075 86.4911701,318.5275 84.4011701,317.3475 C84.3011701,317.2975 84.1911701,317.2475 84.0311701,317.1675 Z M95.0211701,311.0275 L87.0111701,311.0275 L87.0111701,311.0275 C86.1511701,311.0375 85.8111701,311.3575 85.8111701,312.1875 C85.8011701,313.6475 85.8211701,315.1175 85.8011701,316.5775 C85.7911701,316.8875 85.9111701,317.0375 86.1711701,317.1875 C87.6711701,318.0175 89.1711701,318.8575 90.6611701,319.7075 C90.9211701,319.8475 91.1011701,319.8475 91.3511701,319.6975 C92.8511701,318.8375 94.3611701,317.9875 95.8711701,317.1375 C96.1011701,317.0075 96.2111701,316.8775 96.2011701,316.5975 C96.1911701,315.1275 96.2011701,313.6475 96.2011701,312.1675 C96.1911701,311.3575 95.8511701,311.0375 95.0211701,311.0275 Z M97.2421502,315.705939 L97.2421502,316.4525 L97.7945365,316.07922 L97.2421502,315.705939 Z M84.7761931,315.705939 L84.2238069,316.07922 L84.7761931,316.4525 L84.7761931,315.705939 Z M93.4411701,315.4575 C93.8811701,315.4575 94.1611701,315.6575 94.1311701,315.9575 C94.0811701,316.3275 93.8211701,316.4475 93.4611701,316.4475 C91.8411701,316.4375 90.2211701,316.4375 88.5911701,316.4475 C88.2511701,316.4475 87.9611701,316.3675 87.9511701,315.9575 C87.9311701,315.6175 88.1411701,315.4575 88.6211701,315.4575 L93.4411701,315.4575 L93.4411701,315.4575 Z M93.3711701,313.1375 C93.4611701,313.1375 93.5511701,313.1375 93.6411701,313.1575 C93.9211701,313.2275 94.1511701,313.3775 94.1211701,313.6875 C94.0911701,314.0075 93.8711701,314.1675 93.5411701,314.1675 L88.6211701,314.1675 L88.6211701,314.1675 C88.1511701,314.1575 87.9311701,313.9975 87.9511701,313.6475 C87.9711701,313.2275 88.2811701,313.1375 88.6311701,313.1375 L93.3711701,313.1375 L93.3711701,313.1375 Z" id="反馈"></path>
        </g>
    </g>
</svg>