<?xml version="1.0" encoding="UTF-8"?>
<svg width="16px" height="16px" viewBox="0 0 16 16" version="1.1" xmlns="http://www.w3.org/2000/svg" xmlns:xlink="http://www.w3.org/1999/xlink">
    <title>反馈</title>
    <g id="页面-1" stroke="none" stroke-width="1" fill="none" fill-rule="evenodd">
        <g id="画板" transform="translate(-381.000000, -263.000000)" fill="#5A5A5A" fill-rule="nonzero">
            <path d="M393.09117,263.0075 C394.42117,263.0075 395.23117,263.8175 395.25117,265.1075 C395.26117,265.8775 395.26117,266.6475 395.25117,267.4075 C395.25117,267.6475 395.31117,267.7775 395.54117,267.8775 C396.58117,268.3075 397.02117,269.0675 397.00117,270.1775 C396.96117,272.3675 396.99117,274.5575 396.99117,276.7475 C396.99117,278.2375 396.21117,278.9875 394.67117,278.9875 L388.98117,278.9875 L388.98117,278.9875 C387.08117,278.9875 385.19117,278.9675 383.29117,278.9975 C381.95117,279.0175 380.96117,278.1875 381.00117,276.7575 C381.06117,274.5175 381.03117,272.2675 381.01117,270.0175 C380.99117,268.9975 381.42117,268.2775 382.37117,267.8875 C382.71117,267.7475 382.79117,267.5575 382.78117,267.2175 C382.76117,266.5075 382.77117,265.7975 382.78117,265.0875 C382.80117,263.7875 383.60117,263.0075 384.94117,263.0075 C387.66117,262.9975 390.37117,262.9975 393.09117,263.0075 Z M382.03117,270.1675 L382.03117,276.7275 L382.03117,276.7275 C382.03117,277.6475 382.35117,277.9575 383.29117,277.9575 L394.71117,277.9575 L394.71117,277.9575 C395.63117,277.9575 395.97117,277.6175 395.97117,276.7175 L395.97117,270.5875 L395.97117,270.5875 C395.97117,270.4575 395.96117,270.3375 395.95117,270.1975 C395.87117,270.2275 395.82117,270.2275 395.79117,270.2475 C393.65117,271.4475 391.51117,272.6575 389.36117,273.8475 C389.18117,273.9475 388.85117,273.9675 388.67117,273.8675 C386.57117,272.7075 384.49117,271.5275 382.40117,270.3475 C382.30117,270.2975 382.19117,270.2475 382.03117,270.1675 Z M393.02117,264.0275 L385.01117,264.0275 L385.01117,264.0275 C384.15117,264.0375 383.81117,264.3575 383.81117,265.1875 C383.80117,266.6475 383.82117,268.1175 383.80117,269.5775 C383.79117,269.8875 383.91117,270.0375 384.17117,270.1875 C385.67117,271.0175 387.17117,271.8575 388.66117,272.7075 C388.92117,272.8475 389.10117,272.8475 389.35117,272.6975 C390.85117,271.8375 392.36117,270.9875 393.87117,270.1375 C394.10117,270.0075 394.21117,269.8775 394.20117,269.5975 C394.19117,268.1275 394.20117,266.6475 394.20117,265.1675 C394.19117,264.3575 393.85117,264.0375 393.02117,264.0275 Z M395.24215,268.705939 L395.24215,269.4525 L395.794537,269.07922 L395.24215,268.705939 Z M382.776193,268.705939 L382.223807,269.07922 L382.776193,269.4525 L382.776193,268.705939 Z M391.44117,268.4575 C391.88117,268.4575 392.16117,268.6575 392.13117,268.9575 C392.08117,269.3275 391.82117,269.4475 391.46117,269.4475 C389.84117,269.4375 388.22117,269.4375 386.59117,269.4475 C386.25117,269.4475 385.96117,269.3675 385.95117,268.9575 C385.93117,268.6175 386.14117,268.4575 386.62117,268.4575 L391.44117,268.4575 L391.44117,268.4575 Z M391.37117,266.1375 C391.46117,266.1375 391.55117,266.1375 391.64117,266.1575 C391.92117,266.2275 392.15117,266.3775 392.12117,266.6875 C392.09117,267.0075 391.87117,267.1675 391.54117,267.1675 L386.62117,267.1675 L386.62117,267.1675 C386.15117,267.1575 385.93117,266.9975 385.95117,266.6475 C385.97117,266.2275 386.28117,266.1375 386.63117,266.1375 L391.37117,266.1375 L391.37117,266.1375 Z" id="反馈"></path>
        </g>
    </g>
</svg>