<?xml version="1.0" encoding="UTF-8"?>
<svg width="28px" height="29px" viewBox="0 0 28 29" version="1.1" xmlns="http://www.w3.org/2000/svg" xmlns:xlink="http://www.w3.org/1999/xlink">
    <title>chttrans_active_hover</title>
    <g id="页面-1" stroke="none" stroke-width="1" fill="none" fill-rule="evenodd">
        <g id="工具栏按键" transform="translate(-358.000000, -252.000000)">
            <g id="chttrans_active_hover" transform="translate(358.000000, 252.000000)">
                <polygon id="矩形-34-拷贝-8" fill="#F2F5F7" fill-rule="nonzero" points="0 0 28 0 28 29 0 29"></polygon>
                <path d="M9.85,9.04 L9.08,10.03 L14.06,10.03 C14.06,10.66 14.09,11.46 14.04,12 L15.02,12 L15.02,12.93 L14.02,12.99 C14.02,13.24 13.99,13.18 13.92,13.56 L14.05,13.56 L14.05,14.41 L14.1,14.38 L14.08,14.97 L14.04,14.94 C13.2,15.35 12.63,15.74 11.89,16.04 L14.58,16.01 C16.34,16.1 16.17,15.11 16.81,14.81 L17.28,16.53 C16.12,17.14 15.04,17.68 13.5,18.05 C15.64,18.02 16.96,18.05 19.48,18.01 C19.51,17.85 18.38,17.01 17.44,16.01 L19.05,16.02 C19.8,16.72 21.38,17.77 22.05,18.29 L22.06,19.66 C21.65,19.53 20.86,19.24 20.07,18.96 L15.06,18.94 L15.06,20.74 C15.06,21.65 13.98,22.03 12.86,22.03 L11.51,22.03 L11.21,20.99 C11.66,21.04 12.11,21.07 12.57,21.07 C12.7,21.09 12.83,20.8 12.93,20.71 C13.02,20.62 13.07,20.5 13.06,20.37 L13.06,18.99 C12.35,19 11.7,19.01 11,19.02 L11.37,19.03 C10.23,20.83 8.74,22.05 7.91,22 L7.07,21.26 C7.98,20.8 8.7,20.27 9.56,19.03 C8.85,19.04 8.05,19.04 7.1,19.04 L7.1,18.03 C7.57,18.06 7.88,18.03 9.13,17.98 C10.83,18.01 12.32,18.19 12.62,17.01 L9.03,16.98 L9.07,16.02 C9.52,16.04 9.65,16.06 10.07,15.94 C10.62,15.74 11.16,15.33 11.69,15.01 L8.09,15.01 C8.22,14.21 8,13.39 8.05,12.99 L7.09,12.99 L7.09,12 L8.07,12 C8.13,11.46 8.12,10.62 8.14,10.35 L7.47,10.8 L7,9.76 C7.98,9.03 8.41,8.05 9,7 L11.07,7.03 L10.52,8.03 L14.81,8.03 L14.81,9.04 L9.85,9.04 Z M11.69,15.01 L12.24,15.01 L12.13,14.76 C11.99,14.83 11.84,14.92 11.69,15.01 Z M9.56,19.03 C10.08,19.03 10.55,19.02 11,19.02 L9.59,18.98 C9.58,19 9.57,19.02 9.56,19.03 Z M15.99,11.74 C15.82,11.94 15.63,11.77 15.23,11.86 L15.06,10.04 C16.04,9 16.05,8.34 16.56,7.02 L18.04,7.34 L17.51,8.04 L22.08,8.04 L22.08,8.96 L20.89,8.96 C20.89,10.05 19.6,11.95 18.93,12.8 C19.78,13.28 21.12,13.98 22.06,14.26 L21.39,15.24 C20.34,14.88 19.06,14.17 18.06,13.7 C17.09,14.68 16.25,15.09 15.39,15.32 L14.73,14.08 C15.89,13.94 16.5,13.31 17.31,12.76 C16.75,12.21 16.31,11.57 15.99,10.87 L15.99,11.74 Z M18.58,19 C19.99,20.23 21.31,21.34 22.07,21.99 L19.58,22 C18.91,21.42 17.43,20.16 16.13,18.99 L18.58,19 Z M16.91,9.02 C17.18,9.8 17.43,10.47 18.07,11.02 C18.57,10.42 18.82,9.76 19.07,9.02 L16.91,9.02 Z M9.07,12.02 L10.07,12.02 L10.07,11.02 L9.07,11.02 L9.07,12.02 Z M12.07,12.02 L13.07,12.02 L13.07,11.02 L12.07,11.02 L12.07,12.02 Z M12.07,14.02 L13.07,14.02 L13.07,13.02 L12.07,13.02 L12.07,14.02 Z M9.07,14.02 L10.07,14.02 L10.07,13.02 L9.07,13.02 L9.07,14.02 Z" id="繁体" fill="#00A296"></path>
            </g>
        </g>
    </g>
</svg>