<?xml version="1.0" encoding="UTF-8"?>
<svg width="28px" height="29px" viewBox="0 0 28 29" version="1.1" xmlns="http://www.w3.org/2000/svg" xmlns:xlink="http://www.w3.org/1999/xlink">
    <title>chttrans_inactive_hover</title>
    <g id="页面-1" stroke="none" stroke-width="1" fill="none" fill-rule="evenodd">
        <g id="工具栏按键" transform="translate(-330.000000, -252.000000)">
            <g id="chttrans_inactive_hover" transform="translate(330.000000, 252.000000)">
                <polygon id="矩形-34-拷贝-7" fill="#F2F5F7" fill-rule="nonzero" points="0 0 28 0 28 29 0 29"></polygon>
                <path d="M8,13.04 L10,13.04 L10,22.01 L8,22.01 L8,13.04 Z M10.19,10.5 C11,11.2 12.66,13.09 13.34,13.91 L11.09,13.54 C10.11,12.69 9.53,12.04 8.74,11.3 L10.19,10.5 Z M11.03,13.99 L18,13.99 L18,21 L18.47,21.03 C18.86,21.03 19,20.95 19,20.45 L19,12.98 L13,12.98 L13,11.99 L20.98,11.99 L20.98,19.97 C20.98,21.26 21.27,22 19.85,22 L18,21.98 L18,21.01 L18,21.01 L18,21 L18,21 L18,20.91 L13.31,20.91 L13.31,21.01 L11.03,21.01 L11.03,13.99 Z M13,17.02 L16,17.02 L16,14.99 L13,14.99 L13,17.02 Z M16,20.03 L16,17.99 L13,17.99 L13,20.03 L16,20.03 Z M16.48,8.98 C15.96,9.82 15.44,10.48 14.23,11.07 L13.24,10.09 C14.5,9.23 14.91,8.39 15.37,6.99 L16.78,6.99 C16.72,7.46 16.57,7.81 16.52,7.97 L21,7.97 L21,8.98 L18.11,8.98 C18.57,9.39 19.49,10.2 20.14,10.75 L18.51,11.01 C17.65,10.03 17.19,9.69 16.73,8.98 L16.48,8.98 Z M10.45,8.98 C9.8,9.95 9.44,10.35 8.7,11.01 L6.81,11 C8.06,10.13 9.07,8.39 9.52,6.99 L11.03,6.99 C10.94,7.49 10.7,7.81 10.64,7.97 L14,7.97 L14,8.98 L12.29,8.98 C12.76,9.7 13.12,10.04 13.83,10.72 L12.04,11.14 C11.34,10.31 11.09,9.78 10.67,8.98 L10.45,8.98 Z" id="简体-拷贝" fill="#00A296"></path>
            </g>
        </g>
    </g>
</svg>