<?xml version="1.0" encoding="UTF-8"?>
<svg width="28px" height="29px" viewBox="0 0 28 29" version="1.1" xmlns="http://www.w3.org/2000/svg" xmlns:xlink="http://www.w3.org/1999/xlink">
    <title>chttrans_active_press</title>
    <g id="页面-1" stroke="none" stroke-width="1" fill="none" fill-rule="evenodd">
        <g id="工具栏按键" transform="translate(-358.000000, -215.000000)">
            <g id="chttrans_active_press" transform="translate(358.000000, 215.000000)">
                <polygon id="矩形-34-拷贝-8" fill="#E2EBF0" fill-rule="nonzero" points="0 0 28 0 28 29 0 29"></polygon>
                <path d="M9.78,9.02 L9.01,10.01 L13.99,10.01 C13.99,10.64 14.02,11.44 13.97,11.98 L14.95,11.98 L14.95,12.91 L13.95,12.97 C13.95,13.22 13.92,13.16 13.85,13.54 L13.98,13.54 L13.98,14.39 L14.03,14.36 L14.01,14.95 L13.97,14.92 C13.13,15.33 12.56,15.72 11.82,16.02 L14.51,15.99 C16.27,16.08 16.1,15.09 16.74,14.79 L17.21,16.51 C16.05,17.12 14.97,17.66 13.43,18.03 C15.57,18 16.89,18.03 19.41,17.99 C19.44,17.83 18.31,16.99 17.37,15.99 L18.98,16 C19.73,16.7 21.31,17.75 21.98,18.27 L21.99,19.64 C21.58,19.51 20.79,19.22 20,18.94 L14.99,18.92 L14.99,20.72 C14.99,21.63 13.91,22.01 12.79,22.01 L11.44,22.01 L11.14,20.97 C11.59,21.02 12.04,21.05 12.5,21.05 C12.63,21.07 12.76,20.78 12.86,20.69 C12.95,20.6 13,20.48 12.99,20.35 L12.99,18.97 C12.28,18.98 11.63,18.99 10.93,19 L11.3,19.01 C10.16,20.81 8.67,22.03 7.84,21.98 L7,21.24 C7.91,20.78 8.63,20.25 9.49,19.01 C8.78,19.02 7.98,19.02 7.03,19.02 L7.03,18.01 C7.5,18.04 7.81,18.01 9.06,17.96 C10.76,17.99 12.25,18.17 12.55,16.99 L8.96,16.96 L9,16 C9.45,16.03 9.58,16.04 10,15.92 C10.55,15.72 11.09,15.31 11.62,14.99 L8.02,14.99 C8.15,14.19 7.93,13.37 7.98,12.97 L7.02,12.97 L7.02,11.98 L8,11.98 C8.06,11.44 8.05,10.6 8.07,10.33 L7.4,10.78 L6.93,9.74 C7.91,9.01 8.34,8.03 8.93,6.98 L11,7.01 L10.45,8.01 L14.74,8.01 L14.74,9.02 L9.78,9.02 Z M11.62,14.99 L12.17,14.99 L12.06,14.74 C11.92,14.81 11.77,14.9 11.62,14.99 Z M9.49,19.01 C10.01,19.01 10.48,19 10.93,19 L9.52,18.96 C9.51,18.98 9.5,19 9.49,19.01 Z M15.92,11.72 C15.75,11.92 15.56,11.75 15.16,11.84 L14.99,10.02 C15.97,8.98 15.98,8.32 16.49,7 L17.97,7.32 L17.44,8.02 L22.01,8.02 L22.01,8.94 L20.82,8.94 C20.82,10.03 19.53,11.93 18.86,12.78 C19.71,13.26 21.05,13.96 21.99,14.24 L21.32,15.22 C20.27,14.86 18.99,14.15 17.99,13.68 C17.02,14.66 16.18,15.07 15.32,15.3 L14.66,14.06 C15.82,13.92 16.43,13.29 17.24,12.74 C16.68,12.19 16.24,11.55 15.92,10.85 L15.92,11.72 Z M18.51,18.98 C19.92,20.21 21.24,21.32 22,21.97 L19.51,21.98 C18.84,21.4 17.36,20.14 16.06,18.97 L18.51,18.98 Z M16.84,9 C17.11,9.78 17.36,10.45 18,11 C18.5,10.4 18.75,9.74 19,9 L16.84,9 Z M9,12 L10,12 L10,11 L9,11 L9,12 Z M12,12 L13,12 L13,11 L12,11 L12,12 Z M12,14 L13,14 L13,13 L12,13 L12,14 Z M9,14 L10,14 L10,13 L9,13 L9,14 Z" id="繁体" fill="#4C9192"></path>
            </g>
        </g>
    </g>
</svg>