<?xml version="1.0" encoding="UTF-8"?>
<svg width="28px" height="29px" viewBox="0 0 28 29" version="1.1" xmlns="http://www.w3.org/2000/svg" xmlns:xlink="http://www.w3.org/1999/xlink">
    <title>en_hover</title>
    <g id="页面-1" stroke="none" stroke-width="1" fill="none" fill-rule="evenodd">
        <g id="工具栏按键" transform="translate(-161.000000, -252.000000)" fill-rule="nonzero">
            <g id="en_hover" transform="translate(161.000000, 252.000000)">
                <polygon id="矩形-34" fill="#F2F5F7" points="0 0 28 0 28 29 0 29"></polygon>
                <g id="英" transform="translate(7.000000, 7.000000)" fill="#00A296">
                    <path d="M1,1 L13,1 C13.55,1 14,1.45 14,2 C14,2.55 13.55,3 13,3 L1,3 C0.45,3 0,2.55 0,2 C0,1.45 0.45,1 1,1 Z M1,1 L13,1 L13,3 L1,3 L1,1 Z M3,0 L5,0 L5,4 L3,4 L3,0 Z M9,0 L11,0 L11,4 L9,4 L9,0 Z M2,5 L12,5 L12,7 L2,7 L2,5 Z M10,5 L12,5 L12,11 L10,11 L10,5 Z M2,5 L4,5 L4,11 L2,11 L2,5 Z M1,9 L13,9 L13,11 L1,11 L1,9 Z M6,4 L8,4 L8,11 L6,11 L6,4 Z M1,9 L2,9 C2.55,9 3,9.45 3,10 C3,10.55 2.55,11 2,11 L1,11 C0.45,11 0,10.55 0,10 C0,9.45 0.45,9 1,9 Z M12,9 L13,9 C13.55,9 14,9.45 14,10 C14,10.55 13.55,11 13,11 L12,11 C11.45,11 11,10.55 11,10 C11,9.45 11.45,9 12,9 Z" id="矩形-23"></path>
                    <path d="M14,13 L14,15 L11,15 C11,15 7,14.9980477 6.94,11 L9,11 C9,11 9.49,13 12,13 C14.09,13 14,13 14,13 Z" id="形状-5"></path>
                    <path d="M0.09,12.98 L0.09,14.9700066 L3.03,14.9700066 C3.03,14.9700066 6.94,15 7,11 L4.98,11 C4.98,11 4.5,12.98 2.05,12.98 C-3.62210262e-15,12.98 0.09,12.98 0.09,12.98 Z" id="形状-5-拷贝"></path>
                </g>
            </g>
        </g>
    </g>
</svg>