<?xml version="1.0" encoding="UTF-8"?>
<svg width="23px" height="23px" viewBox="0 0 23 23" version="1.1" xmlns="http://www.w3.org/2000/svg" xmlns:xlink="http://www.w3.org/1999/xlink">
    <title>logo</title>
    <g id="页面-1" stroke="none" stroke-width="1" fill="none" fill-rule="evenodd">
        <g id="工具栏按键" transform="translate(-88.000000, -286.000000)" fill-rule="nonzero">
            <g id="logo" transform="translate(88.000000, 286.000000)">
                <path d="M11,0 L12,0 C12.55,0 13,0.45 13,1 L13,6 C13,6.55 12.55,7 12,7 L11,7 C10.45,7 10,6.55 10,6 L10,1 C10,0.45 10.45,0 11,0 Z" id="圆角矩形-1-拷贝-4" fill="#0072BC"></path>
                <path d="M11,8 L12,8 C12.55,8 13,8.45 13,9 L13,14 C13,14.55 12.55,15 12,15 L11,15 C10.45,15 10,14.55 10,14 L10,9 C10,8.45 10.45,8 11,8 Z" id="圆角矩形-1-拷贝-4" fill="#0072BC"></path>
                <path d="M6,4 L7,4 C7.55,4 8,4.45 8,5 L8,10 C8,10.55 7.55,11 7,11 L6,11 C5.45,11 5,10.55 5,10 L5,5 C5,4.45 5.45,4 6,4 Z" id="圆角矩形-1-拷贝-10" fill="#0089D0"></path>
                <path d="M6,12 L7,12 C7.55,12 8,12.45 8,13 L8,18 C8,18.55 7.55,19 7,19 L6,19 C5.45,19 5,18.55 5,18 L5,13 C5,12.45 5.45,12 6,12 Z" id="圆角矩形-1-拷贝-10" fill="#0089D0"></path>
                <path d="M16,4 L17,4 C17.55,4 18,4.45 18,5 L18,10 C18,10.55 17.55,11 17,11 L16,11 C15.45,11 15,10.55 15,10 L15,5 C15,4.45 15.45,4 16,4 Z" id="圆角矩形-1-拷贝-10" fill="#0089D0"></path>
                <path d="M21,8 L22,8 C22.55,8 23,8.45 23,9 L23,14 C23,14.55 22.55,15 22,15 L21,15 C20.45,15 20,14.55 20,14 L20,9 C20,8.45 20.45,8 21,8 Z" id="圆角矩形-1-拷贝-10" fill="#00A296"></path>
                <path d="M1,8 L2,8 C2.55,8 3,8.45 3,9 L3,14 C3,14.55 2.55,15 2,15 L1,15 C0.45,15 0,14.55 0,14 L0,9 C0,8.45 0.45,8 1,8 Z" id="圆角矩形-1-拷贝-10" fill="#00A296"></path>
                <path d="M16,12 L17,12 C17.55,12 18,12.45 18,13 L18,18 C18,18.55 17.55,19 17,19 L16,19 C15.45,19 15,18.55 15,18 L15,13 C15,12.45 15.45,12 16,12 Z" id="圆角矩形-1-拷贝-10" fill="#0089D0"></path>
                <path d="M11,16 L12,16 C12.55,16 13,16.45 13,17 L13,22 C13,22.55 12.55,23 12,23 L11,23 C10.45,23 10,22.55 10,22 L10,17 C10,16.45 10.45,16 11,16 Z" id="圆角矩形-1-拷贝-4" fill="#0072BC"></path>
            </g>
        </g>
    </g>
</svg>