<?xml version="1.0" encoding="UTF-8"?>
<svg width="12px" height="10px" viewBox="0 0 12 10" version="1.1" xmlns="http://www.w3.org/2000/svg" xmlns:xlink="http://www.w3.org/1999/xlink">
    <g id="name" transform="translate(-860.000000, -435.000000)" fill="#000000">
		<path id="name_1" d="M864.987448,435 C866.428173,435 867.595537,436.438083 867.595537,438.213049 C867.595537,439.362184 866.46304,440.628495 866.369596,440.938748 C866.276151,
			441.249001 866.269177,441.492676 866.37378,441.596538 C866.53696,441.756325 866.958159,441.920107 866.958159,441.920107 L866.958159,441.920107 L869.167364,
			442.780293 C869.631799,442.946738 869.997211,443.398136 870,443.894807 L870,443.894807 L870,444.129161 C870,444.669774 869.560669,445 869.020921,445 L869.020921,
			445 L860.977685,445 C860.439331,445 860,444.669774 860,444.129161 L860,444.129161 L860,443.894807 C860,443.400799 860.364017,442.961385 860.829847,442.79494 L860.829847,
			442.79494 L862.821478,441.908123 L862.821478,441.908123 L862.878795,441.889491 C863.021702,441.841598 863.390795,441.708655 863.509066,441.576565 C863.608089,
			441.466045 863.637378,441.10253 863.51325,440.864181 C863.389121,440.625832 862.379358,439.312916 862.379358,438.213049 C862.379358,436.438083 863.546722,435 864.987448,
			435 Z M869.4,436.550154 C869.504489,436.550154 869.604831,436.591041 869.679563,436.664069 L871.777234,438.713915 C871.935235,438.868313 871.938155,439.121562 871.783757,
			439.279563 C871.781608,439.281762 871.779434,439.283936 871.777234,439.286085 L869.679563,441.335931 C869.521562,441.490329 869.268313,441.487409 869.113915,
			441.329408 C869.040887,441.254676 869,441.154335 869,441.049846 L869,436.950154 C869,436.72924 869.179086,436.550154 869.4,436.550154 Z"></path>
    </g>
</svg>