<?xml version="1.0" encoding="UTF-8"?>
<svg width="28px" height="29px" viewBox="0 0 28 29" version="1.1" xmlns="http://www.w3.org/2000/svg" xmlns:xlink="http://www.w3.org/1999/xlink">
    <title>编组 10</title>
    <g id="页面-1" stroke="none" stroke-width="1" fill="none" fill-rule="evenodd">
        <g id="新增功能" transform="translate(-1098.000000, -301.000000)">
            <g id="编组-10" transform="translate(1098.000000, 301.000000)">
                <rect id="矩形备份-2" fill="#DFE9EE" x="0" y="0" width="28" height="29"></rect>
                <path d="M21,8.37826499 L21,14.0212766 C21,14.3738957 20.5648999,14.6922073 19.8830945,14.6922073 C19.2012891,14.6922073 18.6363626,14.3738972 18.6363626,14.0213743 L18.6363626,9.27660233 L8.36363532,9.27660233 L8.36363532,18.6499073 L11.7342165,18.6499073 C12.1107735,18.6498533 12.5000829,19.2324538 12.5001837,19.8489782 C12.5002845,20.4655026 12.1109828,21.0281723 11.7344258,21.0281723 L7.36363589,21.0281723 C6.61052024,21.0281723 6,20.3549517 6,19.6499073 L6,8.27660233 C6,7.5715581 6.61052024,7 7.36363583,7 L19.6363631,7 C20.3894798,7 21,7.67322056 21,8.37826499 Z M20,5 L21,5 L21,9 L20,9 L20,5 Z M6,19 L7,19 L7,23 L6,23 L6,19 Z M19,7 L23,7 L23,8 L19,8 L19,7 Z M4,20 L8,20 L8,21 L4,21 L4,20 Z M20.8333362,16 L20.8462485,18.6561559 L20.4717913,18.6561559 C20.3491244,17.9463558 19.997725,17.4661562 19.4180553,17.2159051 C19.0924817,17.077655 18.6055039,17.0024056 17.9585051,16.9894545 L17.9585051,21.5152998 C17.9585051,21.8782504 18.0415127,22.1190499 18.2089113,22.2380493 C18.37631,22.3570493 18.7240188,22.4161999 19.2529631,22.4161999 L19.2529631,23 L14.6197559,23 L14.6197559,22.4161999 C15.1274857,22.4161999 15.4650499,22.356 15.6324485,22.2355999 C15.7993861,22.1151998 15.8828548,21.8751004 15.8828548,21.5152998 L15.8828548,16.9894545 C15.2483071,17.0024045 14.7617918,17.0776545 14.4233046,17.2159051 C13.8012081,17.4728057 13.4502719,17.9526558 13.3695686,18.6561559 L12.9951114,18.6561559 L13.0080237,16 L20.8338024,16 L20.8333362,16 Z M14.5988584,11.0941541 C14.9629493,10.6712813 15.577268,10.6170269 16.0034033,10.9703244 L16.0034033,10.9709627 L17.979648,12.5931918 L18.0307843,12.64266 C18.1910121,12.8236174 18.2090792,13.0977659 18.0737389,13.3001073 C18.0045343,13.4070223 17.8964667,13.4788313 17.7747621,13.4982988 L17.7747622,13.4982988 C17.6512405,13.5175067 17.5251256,13.4826984 17.4324889,13.4038308 L15.4565798,11.7816017 L15.4218071,11.7598995 L15.4218071,11.7598995 C15.357817,11.7327834 15.2822751,11.754712 15.245898,11.8109633 L13.4384033,14.2856493 L13.3753351,14.364479 C13.0978356,14.6884147 12.6628346,14.8071381 12.2707896,14.6657561 L11.2003346,14.2763939 L11.1590846,14.2684152 L11.1590846,14.2684152 C11.1148948,14.2671486 11.0726244,14.28534 11.04488,14.3175641 L10.083176,15.3771391 L10.0320396,15.4256498 C9.85101691,15.5743732 9.59158456,15.5533094 9.43544926,15.3765009 C9.25544926,15.1792669 9.25613161,14.859161 9.43544926,14.6616068 L10.3968129,13.6020317 L10.4711311,13.5279892 C10.7493129,13.2707547 11.137267,13.1900105 11.4873817,13.3170323 L12.5578367,13.7063945 L12.5946549,13.7143732 L12.5946549,13.7143732 C12.6469972,13.717298 12.6968938,13.6933308 12.7248822,13.6518201 L14.5327284,11.1771341 L14.5988584,11.0941541 Z M11.2879546,10.5531966 L11.2879546,10.5531966 C11.7439663,10.5531966 12.1136359,10.8992703 12.1136359,11.3261749 C12.1136359,11.3261749 12.1136359,11.3261749 12.1136359,11.3261749 L12.1136359,11.3759622 L12.1136359,11.3759622 C12.1136359,11.8028668 11.7439663,12.1489405 11.2879546,12.1489405 C11.2879546,12.1489405 11.2879545,12.1489405 11.2879545,12.1489405 L11.2347727,12.1489405 L11.2347727,12.1489405 C10.778761,12.1489405 10.4090914,11.8028668 10.4090914,11.3759622 L10.4090914,11.326175 L10.4090914,11.3261749 C10.4090914,10.8992702 10.7787626,10.5531966 11.2347727,10.5531966 L11.2879546,10.5531966 Z" id="形状备份-8" fill="#4C9192" fill-rule="nonzero"></path>
            </g>
        </g>
    </g>
</svg>