<?xml version="1.0" encoding="UTF-8"?>
<svg width="28px" height="29px" viewBox="0 0 28 29" version="1.1" xmlns="http://www.w3.org/2000/svg" xmlns:xlink="http://www.w3.org/1999/xlink">
    <title>pin</title>
    <g id="页面-1" stroke="none" stroke-width="1" fill="none" fill-rule="evenodd">
        <g id="工具栏按键" transform="translate(-209.000000, -107.000000)">
            <g id="pin" transform="translate(209.000000, 107.000000)">
                <g id="框">
                    <mask id="mask-2" fill="white">
                        <use xlink:href="#path-1"></use>
                    </mask>
                    <use id="蒙版" fill="#E2EBF0" fill-rule="nonzero" xlink:href="#path-1"></use>
                    <polygon fill="url(#linearGradient-3)" fill-rule="nonzero" mask="url(#mask-2)" points="-49 0 281 0 281 29 -49 29"></polygon>
                </g>
                <g id="编组" transform="translate(6.973629, 6.907992)" fill="#017BC9" fill-rule="nonzero">
                    <path d="M13.3541786,0.0920084568 C14.0147322,0.393851874 14.0572822,0.954018368 13.7926892,1.446238 C13.6162939,1.77438443 13.321585,2.38123324 12.9085627,3.26678445 L14.0147322,3.26810055 L14.1073605,3.27598617 C14.3743668,3.31895271 14.5197468,3.52008759 14.5011421,3.78458366 L14.4863958,3.88655457 L14.2793253,4.62805513 L14.245934,4.72986845 C14.1624722,4.92461265 13.9990051,5.04083391 13.7926892,5.07006562 L13.6861326,5.07739314 L13.0268174,5.06653923 L12.9478968,8.07179343 L14.3278116,8.08309388 L14.4204399,8.0909795 C14.6874462,8.13394604 14.8328262,8.33508092 14.8145518,8.59837989 L14.7999455,8.69984344 L14.6788267,9.64201051 L14.6454355,9.74382383 C14.5619737,9.93856803 14.3985066,10.0547893 14.1921907,10.084021 L14.085634,10.0913485 L13.0343188,10.080712 L13.0143375,14.1065725 L13.0064519,14.1992008 C12.9634853,14.4662071 12.7623505,14.6115871 12.5002008,14.5936226 L12.2779697,14.5893929 L11.4636755,14.382462 L11.3618622,14.3490708 C11.167118,14.265609 11.0508967,14.1021419 11.021665,13.895826 L11.0143375,13.7892693 L11.0336984,10.0920084 L9.03387226,10.0826685 L9.02637083,10.0905542 C8.74489306,12.4497942 8.78337625,12.8341562 8.1502329,13.895826 C7.51708955,14.9574957 5.94492234,15.3123157 5.44617676,14.9459735 C4.94743117,14.5796314 5.41880704,13.7038979 5.63024059,13.505324 C5.84167413,13.30675 6.85247046,12.609035 7.02637082,11.7333979 C7.05583615,11.5850318 7.05583615,11.0379019 7.02637082,10.0920085 L6.04368115,10.0905542 L5.95105293,10.0826685 C5.68404658,10.039702 5.53866659,9.83856712 5.55694104,9.57526816 L5.57154734,9.47380461 L5.69266609,8.53163753 L5.72605732,8.42982421 C5.80951912,8.23508001 5.97298623,8.11885875 6.17930214,8.08962704 L6.2858588,8.08229952 L7.02637083,8.09200846 L7.02637083,5.0857253 L6.22543345,5.07659878 L6.13280523,5.06871316 C5.86579888,5.02574662 5.72041888,4.82461174 5.73902361,4.56011567 L5.7537699,4.45814476 L5.96084043,3.7166442 L5.99423166,3.61483088 C6.07769346,3.42008668 6.24116056,3.30386541 6.44747647,3.27463371 L6.55403314,3.26730619 L7.31237118,3.26803751 C7.27964698,3.22085491 7.25155039,3.16691415 7.22858378,3.10656478 C7.02637083,2.72531418 6.60398369,1.77065267 6.39494731,1.34243152 C6.18591094,0.914210365 6.19430993,0.42293669 6.79644116,0.176288341 C7.39857238,-0.0703600069 7.83836807,0.288747512 8.02637083,0.621444143 C8.21437359,0.954140774 8.72668597,1.95657543 9.03631085,2.63104344 C9.15016671,2.89670712 9.0795274,3.1431206 8.86003121,3.26744575 L10.9435627,3.26678445 L11.1173783,2.94707728 C11.4483393,2.31715428 12.0309498,0.942321753 12.1604764,0.621444143 C12.290003,0.300566534 12.6936251,-0.209834961 13.3541786,0.0920084568 Z M11.0615627,5.07678445 L8.76991517,5.07678445 L8.76991517,8.09200846 L11.0615627,8.09200846 L11.0615627,5.07678445 Z M3.02637083,0.0920084568 C3.53876193,0.0920084568 3.96106671,0.477713871 4.01878173,0.974621261 L4.02550362,1.09114125 C4.02550362,1.09143019 4.0255035,1.09171914 4.02550325,1.09200808 L4.023,3.092 L4.02637083,3.09200846 C4.57865558,3.09200846 5.02637083,3.53972371 5.02637083,4.09200846 C5.02637083,4.64429321 4.57865558,5.09200846 4.02637083,5.09200846 L4.025,5.092 L4.02564556,7.48578445 L4.25412516,7.32792806 L4.34482458,7.3107285 C4.63539526,7.27922084 5.15800646,7.32078593 5.27847805,8.09200846 C5.29749988,8.21378044 5.2960808,8.32765393 5.27890039,8.43368902 C5.45859942,8.22343978 5.72713641,8.09200846 6.02637083,8.09200846 L7.026,8.092 L7.02637083,5.09200846 L6.02637083,5.09200846 C5.47408608,5.09200846 5.02637083,4.64429321 5.02637083,4.09200846 C5.02637083,3.53972371 5.47408608,3.09200846 6.02637083,3.09200846 L14.0263708,3.09200846 C14.5786556,3.09200846 15.0263708,3.53972371 15.0263708,4.09200846 C15.0263708,4.64429321 14.5786556,5.09200846 14.0263708,5.09200846 L13.013,5.092 L13.01,8.092 L14.0263708,8.09200846 C14.5786556,8.09200846 15.0263708,8.53972371 15.0263708,9.09200846 C15.0263708,9.64429321 14.5786556,10.0920085 14.0263708,10.0920085 L13.007,10.092 L13.0023762,15.0920085 L11.0143375,15.0920085 L11.019,10.092 L6.02637083,10.0920085 C5.47408608,10.0920085 5.02637083,9.64429321 5.02637083,9.09200846 C5.02637083,9.04802118 5.0292109,9.00469723 5.03471769,8.96220999 C4.82929119,9.21999669 4.54613512,9.38856137 4.3689564,9.47049212 L4.27526634,9.5106458 L4.02564556,9.69861643 L4.01433751,13.8074733 L4.00949948,13.9895959 C3.9742091,14.6468792 3.75730552,14.8747268 3.32253771,15.0920085 C2.64715474,15.0831589 2.20710772,15.0831589 1.47466787,15.0920085 L1.11186327,15.0920085 C0.918612627,15.0809234 0.726488132,15.0887232 0.535489781,15.1154079 C0.196077145,14.8427907 0.026370827,14.5016576 0.026370827,14.0920085 C0.026370827,13.4775348 0.684478668,13.1250265 0.927858826,13.0920085 L2.01688185,13.0920085 L2.017,13.006 L2.014446,12.9623973 C2.01455447,12.9622528 2.01477136,12.9621084 2.01520509,12.9619642 L2.017,10.1 L1.948168,10.1263799 C1.78487764,10.1897586 1.55615882,10.2836015 1.26201155,10.4079086 C0.732546462,10.6316615 0.163936589,10.4079086 0.026370827,9.69861643 C-0.0653396811,9.22575497 0.0821578179,8.84188525 0.468863324,8.54700727 L2.019,8.068 L2.022,5.092 L1.02637083,5.09200846 C0.474086079,5.09200846 0.0263708286,4.64429321 0.0263708286,4.09200846 C0.0263708286,3.53972371 0.474086079,3.09200846 1.02637083,3.09200846 L2.023,3.092 L2.02550325,1.09200808 C2.02598252,0.539583254 2.47394579,0.0920084568 3.02637083,0.0920084568 Z M11.025,5.092 L9.02637083,5.09200846 L9.02637083,5.09200846 L9.026,8.092 L11.022,8.092 L11.025,5.092 Z" id="形状结合"></path>
                </g>
            </g>
        </g>
    </g>
</svg>