<?xml version="1.0" encoding="UTF-8"?>
<svg width="28px" height="29px" viewBox="0 0 28 29" version="1.1" xmlns="http://www.w3.org/2000/svg" xmlns:xlink="http://www.w3.org/1999/xlink">
    <title>punc_inactive_press</title>
    <g id="页面-1" stroke="none" stroke-width="1" fill="none" fill-rule="evenodd">
        <g id="工具栏按键" transform="translate(-273.000000, -215.000000)" fill-rule="nonzero">
            <g id="punc_inactive_press" transform="translate(273.000000, 215.000000)">
                <polygon id="矩形-34-拷贝-4" fill="#E2EBF0" points="0 0 28 0 28 29 0 29"></polygon>
                <g id="组-11" transform="translate(8.000000, 8.000000)" fill="#4C9192">
                    <path d="M2,0 C3.1,0 4,0.9 4,2 C4,3.1 3.1,4 2,4 C0.9,4 0,3.1 0,2 C0,0.9 0.9,0 2,0 Z" id="椭圆-5"></path>
                    <path d="M9,4 C10.1,4 11,4.9 11,6 C11,7.1 10.1,8 9,8 C7.9,8 7,7.1 7,6 C7,4.9 7.9,4 9,4 Z" id="椭圆-5-拷贝"></path>
                    <path d="M9,7 C9,7 9.55859583,10.0394323 6,10.66 C6,10.66 7.73414512,11.3086698 9.25040501,10.1304766 C10.7666649,8.9522834 11.2314223,7.32910059 10.9719203,5.6735822 L9,7 Z" id="形状-4"></path>
                </g>
            </g>
        </g>
    </g>
</svg>