<?xml version="1.0" encoding="UTF-8"?>
<svg width="28px" height="29px" viewBox="0 0 28 29" version="1.1" xmlns="http://www.w3.org/2000/svg" xmlns:xlink="http://www.w3.org/1999/xlink">
    <title>quan_press</title>
    <defs>
        <polygon id="path-1" points="0 0 28 0 28 29 0 29"></polygon>
    </defs>
    <g id="页面-1" stroke="none" stroke-width="1" fill="none" fill-rule="evenodd">
        <g id="新增功能" transform="translate(-553.000000, -338.000000)">
            <g id="quan_press" transform="translate(553.000000, 338.000000)">
                <g id="框">
                    <mask id="mask-2" fill="white">
                        <use xlink:href="#path-1"></use>
                    </mask>
                    <use id="蒙版" fill="#DFE9EE" fill-rule="nonzero" xlink:href="#path-1"></use>
                </g>
                <path d="M20.4766918,22 C20.7055077,22 20.8370768,21.8913124 20.8713992,21.6739373 L21.1288171,20.3221286 C21.1631395,20.1047535 21.0658927,19.9960659 20.8370768,19.9960659 L14.9973465,19.9960659 L14.9973465,17.9701913 L18.2800591,17.9701913 C18.508875,17.9701913 18.6404442,17.8615038 18.6747666,17.6441287 L18.9321844,16.2989151 C18.9665068,16.08154 18.8692601,15.9728525 18.6404442,15.9728525 L14.9973465,15.9728525 L14.9925983,13.9973297 L18.2924721,13.9973297 C18.8416303,13.9973297 19.1209576,14.2059872 19.1209576,13.6568291 L19.1209576,13.38225 C19.601471,13.6682699 19.9275336,13.857043 20.0991455,13.9485693 C20.3050799,14.0629773 20.4881326,14.0458161 20.6483037,13.8970858 L21.9010708,12.764447 C22.0612419,12.6157167 22.0269195,12.4955884 21.7981036,12.404062 C20.0133396,11.6184607 17.7787603,9.97085682 15.0943659,7.46125026 L15.0943659,7 C14.7587225,7 13.3498085,7 12.7139693,7 C12.5248398,7 12.2547066,7.41463112 12.2226559,7.46125026 C9.90870279,9.85060777 7.37698141,11.7519367 6.19857951,12.2324501 C5.9926452,12.3239764 5.94688202,12.4669864 6.06128997,12.6614799 L6.78206006,13.914247 C6.89646802,14.1087405 7.05663915,14.160224 7.26257346,14.0686977 C7.61723811,13.9085266 8.06342911,13.6625495 8.60114648,13.3307664 L8.60114648,13.6568291 C8.60114648,14.0686977 8.87097733,13.9973297 9.4201355,13.9973297 L12.9918848,13.9973297 L12.9966331,15.9728525 L9.54501208,15.9728525 C9.31619618,15.9728525 9.18462703,16.08154 9.15030465,16.2989151 L8.89288676,17.6441287 C8.85856437,17.8615038 8.95581113,17.9701913 9.18462703,17.9701913 L12.9966331,17.9701913 L12.9966331,19.9960659 L7.29689584,19.9960659 C7.06807994,19.9960659 6.9365108,20.1047535 6.90218841,20.3221286 L6.64477052,21.6739373 C6.61044814,21.8913124 6.7076949,22 6.9365108,22 L20.4766918,22 Z M10.052352,12.0092826 C11.5854186,11.0024927 12.4681352,10.5964164 13.5092476,9.45233687 C13.7151819,9.22352097 13.9211162,9.22352097 14.1270505,9.45233687 C15.4201529,10.6450038 16.514629,11.2991932 17.7368934,12.0092826 L10.052352,12.0092826 Z" id="全" fill="#4C9192" fill-rule="nonzero"></path>
            </g>
        </g>
    </g>
</svg>