<?xml version="1.0" encoding="UTF-8"?>
<svg width="28px" height="29px" viewBox="0 0 28 29" version="1.1" xmlns="http://www.w3.org/2000/svg" xmlns:xlink="http://www.w3.org/1999/xlink">
    <title>shuang_press</title>
    <defs>
        <polygon id="path-1" points="0 0 28 0 28 29 0 29"></polygon>
    </defs>
    <g id="页面-1" stroke="none" stroke-width="1" fill="none" fill-rule="evenodd">
        <g id="新增功能" transform="translate(-588.000000, -338.000000)">
            <g id="shuang_press" transform="translate(588.000000, 338.000000)">
                <g id="框">
                    <mask id="mask-2" fill="white">
                        <use xlink:href="#path-1"></use>
                    </mask>
                    <use id="蒙版" fill="#DFE9EE" fill-rule="nonzero" xlink:href="#path-1"></use>
                </g>
                <path d="M6.88751278,22.4802091 C7.01598502,22.6670779 7.16781586,22.6845968 7.34300528,22.532766 C8.6277277,21.5166673 9.73726071,20.0859537 10.6716043,18.2406251 C11.2322104,19.1399308 11.5475514,19.6888577 11.6176272,19.8874057 C11.7110615,20.0625951 11.8512131,20.0859537 12.0380818,19.9574815 L13.3520024,19.1165722 C13.5388712,18.9881 13.591428,18.8537881 13.5096729,18.7136366 C13.2410491,18.1296718 12.6337258,17.1778093 11.6877029,15.858049 C12.4702157,13.6740209 12.9847101,11.6427932 13.2066167,9.14342407 C13.2299753,8.87480029 13.188829,8.65137919 12.990281,8.53458624 L12.5399761,8.16528888 C12.3414281,8.04849594 12.2164542,8.00048961 11.9828683,8.00048961 L7.03134291,8.00048961 C6.80943631,8.00048961 6.592841,8.18783507 6.55780312,8.40974168 L6.29501899,9.72366234 C6.2599811,9.94556894 6.35925511,10.0565222 6.592841,10.0565222 L10.6221977,10.0565222 C10.9258594,10.0565222 11.0543316,10.2083531 11.0076144,10.5120147 C10.8557836,11.633227 10.5372924,12.5177707 10.1285171,13.8959275 C9.67302459,13.3470006 9.08637044,12.9938649 8.29217839,12.1062385 C8.09363038,11.8843319 7.88924272,11.8200958 7.67901542,11.9135301 L6.43517052,12.4741363 C6.22494322,12.5675706 6.20158463,12.7135618 6.36509476,12.9121098 C7.40455199,14.0800393 8.34742463,14.9295451 9.27008892,16.1909089 C8.28902815,18.3982956 7.23205198,19.899085 6.09916038,20.693277 C5.93565026,20.8217493 5.91813131,20.9794198 6.04660356,21.1662885 L6.88751278,22.4802091 Z M13.3695214,22.4276523 C13.474635,22.6262003 13.6323055,22.6670779 13.8425328,22.5502849 C15.1038967,21.8845651 16.2543072,20.9502215 17.2937644,19.7472542 C18.1697115,21.008618 19.0514983,21.8904048 19.9391247,22.3926144 C20.1259934,22.5210867 20.3070225,22.5094074 20.4822119,22.3575765 L21.7610947,21.2188453 C21.9362841,21.0670145 21.5859053,20.7983907 21.375678,20.693277 C20.2624766,19.9574815 19.553708,19.2508841 18.642723,17.8727274 C20.149352,15.361679 21.0985251,12.7719583 21.4138661,9.3732835 C21.4956211,8.6958844 21.0242868,8.01216891 20.4520014,8.00048961 L15.0964647,8.00048961 C14.8628788,7.98881032 14.7041112,8.18783507 14.6690733,8.40974168 L14.4062892,9.72366234 C14.3712513,9.94556894 14.4705253,10.0565222 14.7041112,10.0565222 C14.1668637,10.1382773 13.9507967,10.5120147 14.0559104,11.1777345 C14.4880443,13.8055759 15.1447742,15.7412561 16.1024764,17.7150569 C15.016302,19.1399308 13.9067689,20.1034727 12.7738774,20.6056823 C12.5753293,20.710796 12.5286122,20.8626268 12.6337258,21.0611748 L13.3695214,22.4276523 Z M17.416397,15.6303028 C16.70396,13.9835222 16.2340988,12.544212 15.9304372,10.5820905 C15.88372,10.2317117 16.0121922,10.0565222 16.3158539,10.0565222 L18.8210626,10.0565222 C19.1247243,10.0565222 19.2473569,10.225872 19.1889604,10.5645716 C18.8852988,12.4916552 18.2689855,13.936805 17.416397,15.6303028 Z" id="双" fill="#4C9192" fill-rule="nonzero"></path>
            </g>
        </g>
    </g>
</svg>