<?xml version="1.0" encoding="UTF-8"?>
<svg width="28px" height="29px" viewBox="0 0 28 29" version="1.1" xmlns="http://www.w3.org/2000/svg" xmlns:xlink="http://www.w3.org/1999/xlink">
    <title>symbol_pressed</title>
    <g id="页面-1" stroke="none" stroke-width="1" fill="none" fill-rule="evenodd">
        <g id="工具栏按键" transform="translate(-497.000000, -215.000000)">
            <g id="symbol_pressed" transform="translate(497.000000, 215.000000)">
                <rect id="矩形" fill="#DFE9EE" x="0" y="0" width="28" height="29"></rect>
                <path d="M14.5829069,20.777899 L14.0864668,19.7274895 L14.0864668,19.7274895 C15.637922,18.7701553 17.8192083,16.8088751 17.8192083,14.3319814 C17.8192083,11.8639159 15.3936342,10.2827012 13.4949526,10.2827012 C11.5962711,10.2827012 9.16708554,11.8639159 9.16708554,14.3327908 C9.16708554,16.8088751 11.3770229,18.7701553 12.9284781,19.7274895 L12.412264,20.7948541 C12.0595568,21.524139 11.3017539,21.9686295 10.4930838,21.9205523 L6.75466185,21.6982952 C6.33159276,21.6731428 6.00221777,21.3212581 6.00504736,20.8974514 C6.00784037,20.4791226 6.34775094,20.1414739 6.76608908,20.1414739 L9.97408538,20.1414739 L9.97408538,20.1414739 C8.23025973,18.9407685 6.83277902,16.8257412 6.83277902,14.3319814 C6.83277902,10.6078124 9.74747632,8 13.4949526,8 C17.242429,8 20.1571263,10.6078124 20.1571263,14.3319814 C20.1571263,16.8257412 18.779835,18.9407873 17.0360093,20.1414739 L20.2440056,20.1414739 C20.6587515,20.1414739 20.9949694,20.4776918 20.9949694,20.8924377 C20.9949694,20.8941089 20.9949638,20.8957802 20.9949526,20.8974514 C20.9921127,21.3228041 20.6598559,21.6730511 20.2352434,21.6982952 L16.509824,21.9197793 C15.6946303,21.9682443 14.931852,21.5162261 14.5829069,20.777899 Z" id="路径" fill="#4C9192" fill-rule="nonzero"></path>
            </g>
        </g>
    </g>
</svg>