<?xml version="1.0" encoding="UTF-8"?>
<svg width="28px" height="29px" viewBox="0 0 28 29" version="1.1" xmlns="http://www.w3.org/2000/svg" xmlns:xlink="http://www.w3.org/1999/xlink">
    <title>symbol</title>
    <g id="页面-1" stroke="none" stroke-width="1" fill="none" fill-rule="evenodd">
        <g id="工具栏按键" transform="translate(-503.000000, -110.000000)">
            <g id="symbol" transform="translate(503.000000, 110.000000)">
                <g id="框">
                    <mask id="mask-2" fill="white">
                        <use xlink:href="#path-1"></use>
                    </mask>
                    <use id="蒙版" fill="#E2EBF0" fill-rule="nonzero" xlink:href="#path-1"></use>
                    <polygon fill="url(#linearGradient-3)" fill-rule="nonzero" mask="url(#mask-2)" points="-49 0 281 0 281 29 -49 29"></polygon>
                </g>
                <path d="M14.5794763,20.5448405 L14.0864668,19.5201339 L14.0864668,19.5201339 C15.637922,18.5797265 17.8192083,16.653124 17.8192083,14.2200246 C17.8192083,11.7955974 15.3936342,10.2423404 13.4949526,10.2423404 C11.5962711,10.2423404 9.16708554,11.7955974 9.16708554,14.2208197 C9.16708554,16.653124 11.3770229,18.5797265 12.9284781,19.5201339 L12.4155697,20.5619121 C12.0603406,21.2834247 11.3074987,21.7219834 10.5046477,21.6750962 L6.74136491,21.4553169 C6.32588367,21.4310524 6.00221868,21.0855891 6.00504736,20.6694096 C6.00784047,20.2584629 6.34176671,19.9267986 6.75272282,19.9267986 L9.97408538,19.9267986 L9.97408538,19.9267986 C8.23025973,18.747323 6.83277902,16.6696918 6.83277902,14.2200246 C6.83277902,10.5617033 9.74747632,8 13.4949526,8 C17.242429,8 20.1571263,10.5617033 20.1571263,14.2200246 C20.1571263,16.6696918 18.779835,18.7473415 17.0360093,19.9267986 L20.2573719,19.9267986 C20.6647359,19.9267986 20.9949697,20.2570324 20.9949697,20.6643964 C20.9949697,20.6660675 20.994964,20.6677385 20.9949526,20.6694096 C20.9921134,21.0871367 20.6655666,21.4309622 20.2485404,21.4553169 L16.4983356,21.6743324 C15.6888958,21.7216045 14.9310094,21.2754923 14.5794763,20.5448405 Z" id="路径" fill="#017BC9" fill-rule="nonzero"></path>
            </g>
        </g>
    </g>
</svg>
