<?xml version="1.0" encoding="UTF-8"?>
<svg width="28px" height="29px" viewBox="0 0 28 29" version="1.1" xmlns="http://www.w3.org/2000/svg" xmlns:xlink="http://www.w3.org/1999/xlink">
    <title>编组 15</title>
    <g id="页面-1" stroke="none" stroke-width="1" fill="none" fill-rule="evenodd">
        <g id="新增功能" transform="translate(-1136.000000, -301.000000)">
            <g id="编组-15" transform="translate(1136.000000, 301.000000)">
                <rect id="矩形备份-3" fill="#DFE9EE" x="0" y="0" width="28" height="29"></rect>
                <path d="M14.7000108,20.0615307 L14.7000108,20.7692346 L16.1000055,20.7692346 L16.1000055,20.7692346 C16.4866028,20.770948 16.7984237,21.0478537 16.7964739,21.3877197 C16.7945388,21.7251653 16.4838497,21.9982984 16.1000055,22 L11.8999983,22 L11.8999983,22 C11.5133957,22 11.200041,21.7243825 11.2001032,21.3845118 C11.2001648,21.0447177 11.5134828,20.7692804 11.8999983,20.769219 L13.3000108,20.769219 L13.3000108,20.0615307 C9.76289978,19.7532335 7,17.1292307 7,13.9384617 L7,13.3846017 L7,13.3846996 C7,13.044829 7.31340448,12.7692804 7.70000712,12.7692804 C8.08652267,12.7692804 8.39988983,13.0447087 8.40001425,13.3845028 L8.40001425,13.9383627 L8.40001404,13.9384656 C8.39456877,16.657406 10.8973608,18.865424 13.9901357,18.8702053 C17.0829284,18.8749923 19.5945472,16.6747342 19.5999858,13.9558094 C19.5999974,13.9500175 19.5999974,13.9442256 19.5999858,13.9384337 L19.5999858,13.3845737 L19.5999858,13.3846717 C19.5999858,13.044801 19.9133902,12.7692804 20.2999929,12.7692804 C20.6865084,12.7692804 21,13.0446807 21,13.3844748 L21,13.9383348 C21,17.1291039 18.2370825,19.7531067 14.6999892,20.0614039 L14.7000108,20.0615307 Z M14.0000037,6 L14.0000035,6 C16.319598,6 18.2000107,7.65311115 18.2000107,9.69231647 L18.2000107,14 L18.2000107,14 C18.2000107,16.0392139 16.319598,17.6923251 14.0000035,17.6923251 C11.680409,17.6923251 9.79999629,16.0392139 9.79999629,14 L9.79999629,9.69231647 L9.79999629,9.69231702 C9.79999629,7.65311171 11.680409,6 14.0000035,6 L14.0000037,6 Z" id="形状备份-2" fill="#4C9192"></path>
            </g>
        </g>
    </g>
</svg>