<?xml version="1.0" encoding="UTF-8"?>
<svg width="28px" height="29px" viewBox="0 0 28 29" version="1.1" xmlns="http://www.w3.org/2000/svg" xmlns:xlink="http://www.w3.org/1999/xlink">
    <title>wubi_press</title>
    <defs>
        <polygon id="path-1" points="0 0 28 0 28 29 0 29"></polygon>
    </defs>
    <g id="页面-1" stroke="none" stroke-width="1" fill="none" fill-rule="evenodd">
        <g id="工具栏按键" transform="translate(-175.000000, -163.000000)">
            <g id="wubi_press" transform="translate(175.000000, 163.000000)">
                <g id="框">
                    <mask id="mask-2" fill="white">
                        <use xlink:href="#path-1"></use>
                    </mask>
                    <use id="蒙版" fill="#DFE9EE" fill-rule="nonzero" xlink:href="#path-1"></use>
                </g>
                <path d="M8.5940665,8.00015259 L20.5245013,8.00015259 L20.6548341,8.01010271 C20.9822539,8.06279094 21.1607472,8.31996745 21.1308104,8.64305975 L21.115517,8.74182634 L20.9063814,9.48041888 L20.8694347,9.59186724 C20.7696422,9.82471619 20.5707674,9.96255612 20.3255134,9.99337784 L20.2177187,10 L14.58,9.99982609 L14.2941523,11.5422482 L14.0053591,12.959 L17.9283725,12.9631439 L18.0636527,12.9693401 C18.695031,13.0257612 19.0384506,13.4578052 18.9923704,14.1025645 L18.9923704,20 L21.7770916,20.0019722 L21.878335,20.0108632 C22.2057547,20.0635514 22.384248,20.3207279 22.3543113,20.6438202 L22.3390179,20.7425868 L22.1298823,21.4682729 L22.0929355,21.5797212 C21.9931431,21.8125702 21.7942682,21.9504101 21.5490143,21.9812318 L21.4412195,21.987854 L7.16168205,21.9866362 L7.06248513,21.9771404 C6.73811161,21.9210758 6.57243944,21.6617695 6.60360616,21.343339 L6.61889948,21.2461802 L6.82803506,20.5204942 L6.86498182,20.4090458 C6.96477423,20.1761968 7.1636491,20.0383569 7.40890307,20.0075352 L7.5166978,20.000913 L10.7733704,20 L11.5283591,15 L9.05794483,14.9996365 L8.95670141,14.9907455 C8.62928169,14.9380573 8.4507884,14.6808808 8.48072513,14.3577885 L8.49601856,14.2590219 L8.70515414,13.4761029 L8.7421009,13.3646545 C8.84189331,13.1318055 9.04076817,12.9939656 9.28602215,12.9631439 L9.39381688,12.9565217 L11.8633591,12.956 L11.9307618,12.5374245 C12.0087351,12.0378514 12.220718,11.0984704 12.2914287,10.6152826 L12.429,9.99982609 L8.25819445,9.99894085 L8.15695102,9.99004988 C7.8295313,9.93736165 7.65103802,9.68018514 7.68097475,9.35709284 L7.69626817,9.25832624 L7.90540375,8.51973371 L7.94235051,8.40828535 C8.04214292,8.17543639 8.24101779,8.03759646 8.48627177,8.00677475 L8.5940665,8.00015259 Z M16.9658965,14.9776697 L13.6883591,15 L12.9663704,20 L16.9622669,20.0108632 L16.9658965,14.9776697 Z" id="五" fill="#4C9192" fill-rule="nonzero"></path>
            </g>
        </g>
    </g>
</svg>