<?xml version="1.0" encoding="UTF-8"?>
<svg width="16px" height="16px" viewBox="0 0 16 16" version="1.1" xmlns="http://www.w3.org/2000/svg" xmlns:xlink="http://www.w3.org/1999/xlink">
    <title>关于</title>
    <g id="页面-1" stroke="none" stroke-width="1" fill="none" fill-rule="evenodd">
        <g id="画板" transform="translate(-83.000000, -274.000000)" fill="#666666" fill-rule="nonzero">
            <g id="-s-6" transform="translate(83.000000, 274.000000)">
                <path d="M7.87,14.88 C12.97,14.89 16.31,9.77 14.31,5.21 C14.26,5.11 14.22,5.02 14.18,4.92 C14.03,4.6 13.99,4.29 14.35,4.08 C14.66,3.91 14.99,4.02 15.15,4.44 C15.42,5.13 15.71,5.83 15.85,6.56 C16.59,10.24 14.42,14.12 10.94,15.44 C6.05,17.3 0.9,14.33 0.1,9.14 C-0.63,4.45 2.87,0.5 7.06,0.05 C8.46,-0.1 9.8,0.1 11.09,0.61 C11.26,0.68 11.43,0.76 11.59,0.85 C11.87,1.01 12.04,1.24 11.89,1.57 C11.74,1.92 11.44,1.95 11.12,1.83 C10.82,1.73 10.53,1.59 10.23,1.48 C6.3,0.06 1.83,2.73 1.21,6.87 C0.62,10.78 3.17,14.25 7.08,14.84 C7.38,14.89 7.69,14.87 7.87,14.88 Z M8.63,6.82 C8.63,7.5 8.63,8.17 8.63,8.84 C8.63,8.92 8.64,8.99 8.63,9.07 C8.58,9.41 8.41,9.66 8.05,9.64 C7.7,9.63 7.55,9.38 7.54,9.05 C7.54,8.44 7.54,7.82 7.54,7.21 C7.54,6.37 7.53,5.53 7.54,4.69 C7.55,4.22 7.74,3.98 8.09,4.01 C8.53,4.03 8.63,4.35 8.63,4.72 C8.64,5.42 8.63,6.12 8.63,6.82 Z M7.52,11.25 C7.66,11.16 7.84,10.93 8.06,10.89 C8.38,10.83 8.61,11.06 8.61,11.41 C8.61,11.72 8.41,11.93 8.1,11.95 C7.76,11.96 7.58,11.75 7.52,11.25 Z M13.25,3.3 C12.91,3.27 12.71,3.11 12.7,2.75 C12.7,2.41 12.92,2.23 13.22,2.22 C13.53,2.22 13.75,2.4 13.77,2.72 C13.79,3.07 13.58,3.25 13.25,3.3 Z" id="6"></path>
            </g>
        </g>
    </g>
</svg>