<?xml version="1.0" encoding="UTF-8"?>
<svg width="16px" height="16px" viewBox="0 0 16 16" version="1.1" xmlns="http://www.w3.org/2000/svg" xmlns:xlink="http://www.w3.org/1999/xlink">
    <title>账户</title>
    <g id="页面-1" stroke="none" stroke-width="1" fill="none" fill-rule="evenodd">
        <g id="画板" transform="translate(-83.000000, -230.000000)" fill="#666666" fill-rule="nonzero">
            <g id="账户" transform="translate(83.000000, 230.000000)">
                <path d="M5.35,9.41 C2.14,6.96 2.94,2.89 4.77,1.26 C6.78,-0.54 9.81,-0.4 11.58,1.62 C13.35,3.64 13.45,7.29 10.63,9.4 C10.78,9.48 10.91,9.54 11.03,9.6 C13.3,10.73 14.61,12.58 15.01,15.12 C15.08,15.58 14.88,15.92 14.51,15.98 C14.15,16.04 13.85,15.77 13.8,15.34 C13.47,12.65 11.52,10.62 8.87,10.22 C5.95,9.78 3.22,11.55 2.39,14.42 C2.31,14.69 2.26,14.97 2.24,15.26 C2.21,15.72 1.96,16.02 1.59,16 C1.21,15.97 0.95,15.65 1,15.19 C1.14,13.96 1.57,12.83 2.3,11.83 C3.03,10.83 3.95,10.06 5.08,9.56 C5.17,9.52 5.25,9.46 5.35,9.41 Z M8,1.22 C5.9,1.22 4.25,2.92 4.25,5.08 C4.25,7.23 5.93,8.96 8.01,8.95004313 C10.09,8.95004313 11.75,7.22 11.75,5.07 C11.75,2.92 10.09,1.22 8,1.22 Z" id="5"></path>
            </g>
        </g>
    </g>
</svg>