<?xml version="1.0" encoding="UTF-8"?>
<svg width="16px" height="16px" viewBox="0 0 16 16" version="1.1" xmlns="http://www.w3.org/2000/svg" xmlns:xlink="http://www.w3.org/1999/xlink">
    <title>高级</title>
    <g id="页面-1" stroke="none" stroke-width="1" fill="none" fill-rule="evenodd">
        <g id="画板" transform="translate(-240.000000, -98.000000)" fill="#FFFFFF" fill-rule="nonzero">
            <g id="高级" transform="translate(240.000000, 98.000000)">
                <path d="M15.5,2.5 L13.5,2.5 C13.22,2.5 13,2.28 13,2 C13,1.72 13.22,1.5 13.5,1.5 L15.5,1.5 C15.78,1.5 16,1.72 16,2 C16,2.28 15.78,2.5 15.5,2.5 L15.5,2.5 Z M10.5,2.5 L1.5,2.5 C1.22,2.5 1,2.28 1,2 C1,1.72 1.22,1.5 1.5,1.5 L10.5,1.5 C10.78,1.5 11,1.72 11,2 C11,2.28 10.78,2.5 10.5,2.5 L10.5,2.5 Z M12,4 C10.89,4 10,3.1 10,2 C10,0.89 10.89,0 12,0 C13.1,0 14,0.89 14,2 C14,2.53 13.79,3.04 13.41,3.41 C13.04,3.79 12.53,4 12,4 L12,4 Z M12,1 C11.59,1 11.23,1.24 11.08,1.62 C10.92,1.99 11.01,2.42 11.29,2.71 C11.58,2.99 12.01,3.08 12.38,2.92 C12.76,2.77 13,2.4 13,2 C13,1.45 12.55,1 12,1 L12,1 Z M15.5,8.5 L6.5,8.5 C6.22,8.5 6,8.28 6,8 C6,7.72 6.22,7.5 6.5,7.5 L15.5,7.5 C15.78,7.5 16,7.72 16,8 C16,8.28 15.78,8.5 15.5,8.5 L15.5,8.5 Z M3.5,8.5 L1.5,8.5 C1.22,8.5 1,8.28 1,8 C1,7.72 1.22,7.5 1.5,7.5 L3.5,7.5 C3.78,7.5 4,7.72 4,8 C4,8.28 3.78,8.5 3.5,8.5 L3.5,8.5 Z M5,10 C3.89,10 3,9.1 3,8 C3,6.89 3.89,6 5,6 C6.1,6 7,6.89 7,8 C7,8.53 6.79,9.04 6.41,9.41 C6.04,9.79 5.53,10 5,10 L5,10 Z M5,7 C4.59,7 4.23,7.24 4.07,7.62 C3.92,7.99 4.01,8.42 4.29,8.71 C4.58,8.99 5.01,9.08 5.38,8.92 C5.76,8.77 6,8.4 6,8 C6,7.45 5.55,7 5,7 L5,7 Z M15.5,14.5 L13.5,14.5 C13.22,14.5 13,14.28 13,14 C13,13.72 13.22,13.5 13.5,13.5 L15.5,13.5 C15.78,13.5 16,13.72 16,14 C16,14.28 15.78,14.5 15.5,14.5 L15.5,14.5 Z M10.5,14.5 L1.5,14.5 C1.22,14.5 1,14.28 1,14 C1,13.72 1.22,13.5 1.5,13.5 L10.5,13.5 C10.78,13.5 11,13.72 11,14 C11,14.28 10.78,14.5 10.5,14.5 L10.5,14.5 Z M12,16 C10.89,16 10,15.1 10,14 C10,12.89 10.89,12 12,12 C13.1,12 14,12.89 14,14 C14,14.53 13.79,15.04 13.41,15.41 C13.04,15.79 12.53,16 12,16 L12,16 Z M12,13 C11.59,13 11.23,13.24 11.08,13.62 C10.92,13.99 11.01,14.42 11.29,14.71 C11.58,14.99 12.01,15.08 12.38,14.92 C12.76,14.77 13,14.4 13,14 C13,13.45 12.55,13 12,13 L12,13 Z" id="2"></path>
            </g>
        </g>
    </g>
</svg>