<?xml version="1.0" encoding="UTF-8"?>
<svg width="16px" height="16px" viewBox="0 0 16 16" version="1.1" xmlns="http://www.w3.org/2000/svg" xmlns:xlink="http://www.w3.org/1999/xlink">
    <title>智能选项</title>
    <g id="页面-1" stroke="none" stroke-width="1" fill="none" fill-rule="evenodd">
        <g id="画板" transform="translate(-381.000000, -88.000000)" fill="#5A5A5A" fill-rule="nonzero">
            <g id="智能选项" transform="translate(381.000000, 88.000000)">
                <path d="M0.0075,3.685 C0.0075,3.075 -0.0025,2.465 0.0075,1.855 C0.0275,0.705 0.6775,0.025 1.8175,0.015 C3.0775,-0.005 4.3475,-0.005 5.6075,0.015 C6.7175,0.035 7.4075,0.715 7.4175,1.825 C7.4375,3.095 7.4375,4.355 7.4175,5.625 C7.3975,6.715 6.6975,7.415 5.5975,7.425 C4.3375,7.445 3.0675,7.445 1.8075,7.425 C0.7075,7.415 0.0275,6.715 0.0075,5.605 C-0.0025,4.965 0.0075,4.325 0.0075,3.685 Z M3.7175,1.135 C3.0775,1.135 2.4375,1.135 1.7975,1.135 C1.3375,1.145 1.1375,1.355 1.1375,1.815 C1.1275,3.085 1.1275,4.345 1.1375,5.605 C1.1375,6.075 1.3375,6.285 1.7975,6.285 C3.0575,6.295 4.3275,6.295 5.5875,6.285 C6.0775,6.285 6.2775,6.085 6.2775,5.595 C6.2775,4.345 6.2775,3.095 6.2775,1.845 C6.2775,1.335 6.0775,1.145 5.5475,1.135 C4.9375,1.135 4.3275,1.135 3.7175,1.135 Z M3.6975,15.995 C3.0775,15.995 2.4475,16.005 1.8275,15.995 C0.6875,15.975 0.0175,15.315 0.0075,14.165 C-0.0025,12.915 -0.0025,11.655 0.0075,10.415 C0.0175,9.275 0.7075,8.595 1.8375,8.575 C3.0875,8.565 4.3375,8.565 5.5875,8.575 C6.7075,8.595 7.4075,9.295 7.4175,10.425 C7.4375,11.675 7.4375,12.925 7.4175,14.175 C7.4075,15.285 6.7275,15.965 5.6175,15.995 C4.9775,16.015 4.3375,15.995 3.6975,15.995 Z M3.7275,14.875 C4.3575,14.875 4.9775,14.875 5.6075,14.865 C6.0675,14.865 6.2675,14.665 6.2775,14.195 C6.2775,12.935 6.2775,11.675 6.2775,10.405 C6.2775,9.925 6.0775,9.725 5.6175,9.725 C4.3375,9.715 3.0675,9.715 1.7875,9.725 C1.3475,9.725 1.1375,9.935 1.1375,10.365 C1.1275,11.645 1.1275,12.925 1.1375,14.205 C1.1375,14.665 1.3475,14.865 1.8175,14.865 C2.4575,14.875 3.0875,14.875 3.7275,14.875 Z M12.2675,15.995 C11.6375,15.995 11.0175,16.005 10.3875,15.995 C9.2575,15.975 8.5775,15.285 8.5675,14.155 C8.5575,12.915 8.5575,11.685 8.5675,10.445 C8.5775,9.295 9.2675,8.595 10.4175,8.575 C11.6675,8.565 12.9175,8.565 14.1675,8.575 C15.2775,8.595 15.9575,9.275 15.9775,10.385 C15.9975,11.655 15.9975,12.915 15.9775,14.185 C15.9675,15.325 15.2875,15.975 14.1375,15.995 C13.5075,16.005 12.8875,15.995 12.2675,15.995 Z M9.7075,12.275 C9.7075,12.915 9.6975,13.555 9.7075,14.195 C9.7175,14.665 9.9175,14.865 10.3775,14.865 C11.6375,14.875 12.8975,14.875 14.1675,14.865 C14.6275,14.865 14.8475,14.665 14.8475,14.215 C14.8575,12.935 14.8575,11.655 14.8475,10.375 C14.8475,9.935 14.6375,9.725 14.2075,9.725 C12.9275,9.715 11.6475,9.715 10.3675,9.725 C9.9075,9.725 9.7175,9.925 9.7075,10.405 C9.6975,11.025 9.7075,11.645 9.7075,12.275 Z M12.2575,7.455 C11.6375,7.455 11.0075,7.455 10.3875,7.445 C9.3375,7.445 8.6075,6.795 8.5775,5.745 C8.5375,4.405 8.5375,3.065 8.5775,1.725 C8.6075,0.715 9.3175,0.055 10.3175,0.045 C11.6475,0.025 12.9675,0.025 14.2975,0.045 C15.2175,0.065 15.8975,0.735 15.9675,1.595 C15.9975,1.975 15.8575,2.245 15.4775,2.295 C15.1175,2.335 14.8975,2.125 14.8575,1.765 C14.8075,1.295 14.5375,1.125 14.0875,1.135 C12.8675,1.145 11.6475,1.135 10.4275,1.135 C9.9075,1.145 9.7075,1.325 9.7075,1.855 C9.7075,3.105 9.7075,4.345 9.7075,5.595 C9.7175,6.095 9.9075,6.285 10.4075,6.285 C11.6575,6.295 12.9075,6.295 14.1475,6.285 C14.6475,6.285 14.8375,6.085 14.8575,5.595 C14.8575,5.425 14.8375,5.255 14.8675,5.095 C14.9075,4.785 15.0975,4.595 15.4175,4.595 C15.7375,4.595 15.9275,4.775 15.9675,5.095 C16.1775,6.755 15.1975,7.535 13.9975,7.455 C13.4175,7.425 12.8375,7.455 12.2575,7.455 Z" id="智能icon"></path>
            </g>
        </g>
    </g>
</svg>