<?xml version="1.0" encoding="UTF-8"?>
<svg width="16px" height="16px" viewBox="0 0 16 16" version="1.1" xmlns="http://www.w3.org/2000/svg" xmlns:xlink="http://www.w3.org/1999/xlink">
    <title>默认</title>
    <g id="页面-1" stroke="none" stroke-width="1" fill="none" fill-rule="evenodd">
        <g id="画板" transform="translate(-381.000000, -34.000000)">
            <g id="默认" transform="translate(381.000000, 34.000000)">
                <rect id="矩形" x="0" y="0" width="16" height="16"></rect>
                <path d="M0.53,1 C0.21,1 0,1.22 0,1.55 L0,11.59 C0,11.92 0.21,12.14 0.53,12.14 L5.21,12.14 C5.53,12.14 5.75,11.92 5.75,11.59 C5.75,11.26 5.53,11.04 5.21,11.04 L1.07,11.04 L1.07,2.1 L14.93,2.1 L14.93,11.04 L8.5,11.04 C8.18,11.04 7.96,11.26 7.96,11.59 L7.96,14.9 L5.28,14.9 C4.96,14.9 4.75,15.12 4.75,15.45 C4.75,15.78 4.96,16 5.28,16 L11.5,16 C11.82,16 12.03,15.78 12.03,15.45 C12.03,15.12 11.82,14.9 11.5,14.9 L9.03,14.9 L9.03,12.14 L15.46,12.14 C15.78,12.14 16,11.92 16,11.59 L16,1.55 C16,1.22 15.78,1 15.46,1 L0.53,1 Z M5.39,5.63 C4.75,5.63 4.32,6.07 4.32,6.73 C4.32,7.4 4.75,7.84 5.39,7.84 C6.03,7.84 6.46,7.29 6.46,6.73 C6.46,6.07 6.03,5.63 5.39,5.63 Z M8.71,7.84 C9.03,7.84 9.25,7.62 9.46,7.4 C9.57,7.18 9.57,6.84 9.57,6.51 C9.46,5.96 8.93,5.52 8.28,5.63 C7.75,5.74 7.32,6.29 7.43,6.84 C7.43,7.18 7.64,7.4 7.86,7.62 C8.07,7.73 8.28,7.84 8.5,7.84 L8.71,7.84 Z M11.71,7.84 C12.25,7.73 12.68,7.18 12.57,6.62 C12.57,6.29 12.36,6.07 12.14,5.85 C11.93,5.63 11.61,5.63 11.39,5.63 C11.07,5.63 10.86,5.85 10.64,6.07 C10.54,6.29 10.43,6.62 10.54,6.84 C10.64,7.07 10.75,7.4 10.96,7.62 C11.18,7.73 11.39,7.84 11.61,7.84 L11.71,7.84 Z" id="默认icon" fill="#5A5A5A" fill-rule="nonzero"></path>
            </g>
        </g>
    </g>
</svg>