<?xml version="1.0" encoding="UTF-8"?>
<svg width="16px" height="16px" viewBox="0 0 16 16" version="1.1" xmlns="http://www.w3.org/2000/svg" xmlns:xlink="http://www.w3.org/1999/xlink">
    <title>自定义短语</title>
    <g id="页面-1" stroke="none" stroke-width="1" fill="none" fill-rule="evenodd">
        <g id="画板" transform="translate(-381.000000, -120.000000)">
            <g id="自定义短语" transform="translate(381.000000, 120.000000)">
                <path d="M0.00444444444,6.98 C0.00444444444,4.98 0.00444444444,5.04292659 0.00444444444,3.04292659 C0.00444444444,1.13292659 1.06444444,0.0629265855 2.95444444,0.0629265855 C5.80444444,0.0629265855 9.66444444,0.0629265855 12.5144444,0.0629265855 C14.1944444,0.0629265855 15.2844444,1.11292659 15.3344444,2.82292659 C15.3744444,3.89292659 15.3444444,2.89 15.3444444,3.96 C15.3444444,4.01 15.3444444,4.06 15.3344444,4.11 C15.2844444,4.43 15.1444444,4.69 14.7744444,4.66 C14.4044444,4.64 14.2744444,4.4 14.2744444,4.05 C14.2744444,3.07 14.2744444,4.15292659 14.2744444,3.17292659 C14.2744444,1.71292659 13.7144444,1.15292659 12.2944444,1.15292659 C9.50444444,1.15292659 5.71444444,1.14292659 2.92444444,1.15292659 C1.66444444,1.15292659 1.07444444,1.75292659 1.07444444,3.05292659 C1.06444444,7.04292659 1.06444444,8.97 1.07444444,12.97 C1.07444444,14.26 1.67444444,14.86 2.92444444,14.86 C3.27444444,14.87 4.62444444,14.81 4.95444444,14.89 C5.15444444,14.94 5.45444444,15.22 5.44444444,15.36 C5.41444444,15.57 5.16444444,15.9 4.97444444,15.92 C4.38444444,15.98 2.76444444,15.99 2.17444444,15.89 C0.834444444,15.66 0.0144444444,14.59 0.00444444444,13.12 C-0.00555555556,11.07 0.00444444444,9.02 0.00444444444,6.98 Z M6.90444444,15.56 C6.90444444,14.47 6.88444444,13.35 6.91444444,12.22 C6.92444444,12.04 7.09444444,11.83 7.23444444,11.68 C8.73444444,10.14 10.2444444,8.6 11.7544444,7.06 C12.7944444,6.01 13.9644444,6.02 15.0144444,7.06 C15.6144444,7.65 16.1444444,8.28 15.9644444,9.18 C15.8744444,9.64 15.6644444,10.15 15.3444444,10.49 C13.8144444,12.12 12.2344444,13.7 10.6644444,15.29 C10.5244444,15.43 10.3044444,15.55 10.1144444,15.55 C9.06444444,15.58 8.00444444,15.56 6.90444444,15.56 Z M13.4844444,11 C12.7444444,10.24 12.1044444,9.59 11.4544444,8.92 C10.3744444,10.02 9.25444444,11.16 8.14444444,12.3 C8.06444444,12.39 7.98444444,12.53 7.97444444,12.64 C7.96444444,13.25 7.96444444,13.86 7.96444444,14.5 C8.49444444,14.5 9.00444444,14.53 9.51444444,14.48 C9.76444444,14.46 10.0544444,14.34 10.2344444,14.17 C10.9944444,13.43 11.7244444,12.64 12.4844444,11.89 C12.8244444,11.56 13.1944444,11.26 13.4844444,11 Z M14.2844444,10.02 C14.6944444,9.68 15.1144444,9.29 14.8844444,8.7 C14.6444444,8.07 14.1844444,7.56 13.5144444,7.4 C12.9744444,7.26 12.6344444,7.66 12.3444444,8.05 C13.0044444,8.71 13.6244444,9.35 14.2844444,10.02 Z M7.2371334,4.58 C5.83679081,4.58 4.4263008,4.58 3.02595821,4.58 C2.63020921,4.58 2.27504986,4.55 2.23446022,4.05 C2.2141654,3.67 2.47799806,3.49 3.05640044,3.49 C5.84693822,3.49 8.637476,3.5 11.4280138,3.49 C11.8339102,3.49 12.1789221,3.55 12.2296592,4.03 C12.2702488,4.38 11.9759739,4.58 11.458456,4.58 C10.047966,4.58 8.64762341,4.58 7.2371334,4.58 Z M5.77088168,6.88 C6.69270966,6.88 7.62525656,6.88 8.54708454,6.87 C8.93296602,6.87 9.22237713,7.01 9.23309606,7.39 C9.24381499,7.8 8.94368495,7.96 8.54708454,7.96 C6.6712718,7.96 4.80617799,7.96 2.94108417,7.96 C2.54448377,7.96 2.2336348,7.83 2.2336348,7.41 C2.22291587,6.98 2.54448377,6.87 2.94108417,6.87 C3.88435001,6.88 4.82761585,6.88 5.77088168,6.88 Z M3.75731255,10.25 C4.07627489,10.25 4.40321129,10.26 4.72217362,10.25 C5.01721378,10.24 5.2245393,10.39 5.23251336,10.77 C5.24846148,11.14 5.04113596,11.33 4.75406986,11.33 C4.06830083,11.34 3.38253181,11.35 2.69676278,11.33 C2.41767074,11.33 2.21831928,11.16 2.2342674,10.75 C2.24224145,10.38 2.44159291,10.25 2.70473684,10.25 C3.05559541,10.25 3.40645398,10.25 3.75731255,10.25 Z" id="快速icon" fill="#5A5A5A" fill-rule="nonzero"></path>
                <rect id="矩形" x="0" y="0" width="16" height="16"></rect>
            </g>
        </g>
    </g>
</svg>