<?xml version="1.0" encoding="UTF-8"?>
<svg width="14px" height="14px" viewBox="0 0 14 14" version="1.1" xmlns="http://www.w3.org/2000/svg" xmlns:xlink="http://www.w3.org/1999/xlink">
    <title>选中1</title>
    <g id="页面-1" stroke="none" stroke-width="1" fill="none" fill-rule="evenodd">
        <g id="画板" transform="translate(-480.000000, -66.000000)" fill-rule="nonzero">
            <g id="选中1" transform="translate(480.000000, 66.000000)">
                <path d="M3,0 L11,0 C12.66,0 14,1.34 14,3 L14,11 C14,12.66 12.66,14 11,14 L3,14 C1.34,14 0,12.66 0,11 L0,3 C0,1.34 1.34,0 3,0 Z" id="矩形-1-拷贝-80" fill="#4D9CF8"></path>
                <path d="M2.67254949,5.8319739 C3.01114429,5.45878055 3.5881626,5.43073289 3.96135595,5.7693277 C3.98218286,5.78822376 4.00212503,5.80807259 4.02111858,5.82881062 L6.72128678,8.77697785 C7.10520723,9.19615978 7.10558438,9.83909551 6.72215597,10.2587276 C6.3803559,10.6328007 5.80002599,10.6589632 5.42595284,10.3171631 C5.40560653,10.2985722 5.38610823,10.2790739 5.36751729,10.2587276 L2.67515319,7.31214808 C2.29248014,6.89334271 2.2913522,6.25212296 2.67254949,5.8319739 Z M5.36751729,8.78662316 L10.3758645,3.30538336 C10.7479132,2.89820555 11.3489149,2.89820555 11.7209635,3.30538336 C12.0930122,3.72300163 12.0930122,4.38075041 11.7209635,4.78792822 L6.72215597,10.2587276 C6.35010732,10.6659054 5.74910565,10.6659054 5.36751729,10.2587276 C4.99546864,9.85154976 4.99546864,9.19380098 5.36751729,8.78662316 Z" id="矩形-1-拷贝-80" fill="#FFFFFF"></path>
            </g>
        </g>
    </g>
</svg>