<?xml version="1.0" encoding="UTF-8"?>
<svg width="32px" height="32px" viewBox="0 0 32 32" version="1.1" xmlns="http://www.w3.org/2000/svg" xmlns:xlink="http://www.w3.org/1999/xlink">
    <title>关闭1</title>
    <g id="页面-1" stroke="none" stroke-width="1" fill="none" fill-rule="evenodd">
        <g id="画板" transform="translate(-547.000000, -227.000000)">
            <g id="关闭1" transform="translate(547.000000, 227.000000)">
                <rect id="矩形" fill="#D71121" x="0" y="0" width="32" height="32"></rect>
                <path d="M15.1702436,16.13116 C13.3202436,14.31116 11.6902436,12.71116 10.0602436,11.12116 C9.90024355,10.95116 9.64024355,10.81116 9.60024355,10.62116 C9.52024355,10.30116 9.45024355,9.88116005 9.59024355,9.62116005 C9.82024355,9.22116005 10.2502436,9.26116005 10.5802436,9.58116005 C11.1402436,10.10116 11.6902436,10.65116 12.2302436,11.19116 C13.4602436,12.42116 14.6902436,13.66116 15.9702436,14.94116 C16.2202436,14.72116 16.4302436,14.54116 16.6202436,14.35116 C18.1502436,12.83116 19.6802436,11.31116 21.2002436,9.79116005 C21.5702436,9.42116005 21.9602436,9.10116005 22.4402436,9.61116005 C22.8902436,10.10116 22.6002436,10.49116 22.2202436,10.86116 C20.6902436,12.38116 19.1702436,13.90116 17.6402436,15.42116 C17.4602436,15.60116 17.3002436,15.79116 17.0802436,16.02116 C18.7402436,17.67116 20.3802436,19.30116 22.0102436,20.92116 C22.1902436,21.10116 22.4602436,21.28116 22.5002436,21.49116 C22.5602436,21.80116 22.5502436,22.22116 22.3802436,22.43116 C22.2502436,22.59116 21.7802436,22.55116 21.5102436,22.47116 C21.2802436,22.40116 21.1202436,22.15116 20.9302436,21.97116 C19.3102436,20.37116 17.6902436,18.77116 16.0002436,17.10116 C15.8102436,17.28116 15.6002436,17.46116 15.4102436,17.65116 C13.8902436,19.17116 12.3602436,20.69116 10.8302436,22.21116 C10.5002436,22.54116 10.1302436,22.90116 9.64024355,22.48116 C9.12024355,22.03116 9.34024355,21.59116 9.75024355,21.18116 C11.2902436,19.66116 12.8102436,18.13116 14.3502436,16.63116 C14.5402436,16.43116 14.8302436,16.33116 15.1702436,16.13116 Z M10.0702436,23.00116 C9.87024355,23.00116 9.65024355,22.93116 9.42024355,22.73116 C9.15024355,22.50116 9.01024355,22.24116 9.00024355,21.95116 C8.99024355,21.52116 9.29024355,21.17116 9.52024355,20.94116 C10.0902436,20.37116 10.6602436,19.80116 11.2302436,19.24116 C12.1702436,18.30116 13.1502436,17.33116 14.1102436,16.39116 C14.2602436,16.25116 14.4302436,16.15116 14.6202436,16.05116 L9.83024355,11.35116 C9.79024355,11.31116 9.74024355,11.27116 9.69024355,11.23116 C9.53024355,11.10116 9.33024355,10.94116 9.27024355,10.70116 C9.13024355,10.14116 9.14024355,9.74116005 9.30024355,9.45116005 C9.44024355,9.20116005 9.66024355,9.05116005 9.92024355,9.01116005 C10.2202436,8.96116005 10.5402436,9.08116005 10.8102436,9.33116005 C11.3102436,9.81116005 11.8102436,10.30116 12.2902436,10.78116 L12.4702436,10.96116 C13.3302436,11.82116 14.1802436,12.68116 15.0602436,13.56116 L15.9802436,14.48116 C16.1302436,14.35116 16.2602436,14.24116 16.3802436,14.11116 C17.9102436,12.60116 19.4402436,11.08116 20.9602436,9.56116005 C21.2402436,9.28116005 21.5402436,9.01116005 21.9402436,9.01116005 C21.9402436,9.01116005 21.9502436,9.01116005 21.9502436,9.01116005 C22.2102436,9.02116005 22.4502436,9.14116005 22.6802436,9.38116005 C23.4002436,10.16116 22.7202436,10.84116 22.4602436,11.09116 C21.0302436,12.51116 19.6102436,13.93116 18.1902436,15.34116 L17.8802436,15.66116 C17.7702436,15.77116 17.6602436,15.88116 17.5402436,16.01116 L18.4502436,16.91116 C19.7302436,18.18116 20.9902436,19.43116 22.2502436,20.69116 C22.2902436,20.73116 22.3302436,20.77116 22.3802436,20.81116 C22.5702436,20.97116 22.7802436,21.16116 22.8302436,21.43116 C22.8602436,21.56116 22.9702436,22.25116 22.6402436,22.65116 C22.3002436,23.04116 21.4502436,22.80116 21.4102436,22.79116 C21.1602436,22.71116 20.9802436,22.52116 20.8302436,22.35116 C20.7902436,22.30116 20.7402436,22.25116 20.7002436,22.21116 C19.4602436,20.99116 18.2202436,19.76116 16.9502436,18.51116 L15.9902436,17.56116 C15.8702436,17.66116 15.7602436,17.77116 15.6502436,17.88116 C14.9902436,18.53116 14.3402436,19.19116 13.6802436,19.84116 C12.8102436,20.71116 11.9402436,21.58116 11.0702436,22.44116 C10.8602436,22.65116 10.5102436,23.00116 10.0702436,23.00116 Z M10.0502436,9.66116005 C10.0402436,9.66116005 10.0302436,9.66116005 10.0202436,9.66116005 C10.0002436,9.67116005 9.94024355,9.68116005 9.88024355,9.78116005 C9.85024355,9.84116005 9.79024355,10.02116 9.92024355,10.54116 C9.94024355,10.57116 10.0502436,10.66116 10.1102436,10.72116 C10.1802436,10.77116 10.2402436,10.82116 10.3002436,10.88116 L15.7102436,16.19116 L15.3402436,16.41116 C15.2202436,16.48116 15.1102436,16.54116 15.0002436,16.60116 C14.8202436,16.69116 14.6802436,16.77116 14.5802436,16.86116 C13.6202436,17.81116 12.6502436,18.77116 11.7102436,19.71116 C11.1402436,20.27116 10.5602436,20.84116 9.99024355,21.41116 C9.77024355,21.63116 9.66024355,21.80116 9.67024355,21.93116 C9.67024355,22.02116 9.74024355,22.12116 9.86024355,22.23116 C10.0702436,22.40116 10.1702436,22.39116 10.6002436,21.97116 C11.4702436,21.11116 12.3402436,20.24116 13.2102436,19.37116 C13.8602436,18.72116 14.5202436,18.06116 15.1802436,17.41116 C15.3102436,17.28116 15.4502436,17.15116 15.5902436,17.02116 C15.6502436,16.97116 15.7102436,16.91116 15.7702436,16.86116 L16.0102436,16.64116 L17.4202436,18.04116 C18.6902436,19.29116 19.9302436,20.51116 21.1702436,21.73116 C21.2202436,21.79116 21.2802436,21.85116 21.3302436,21.91116 C21.4202436,22.01116 21.5302436,22.13116 21.6002436,22.15116 C21.8102436,22.21116 22.0502436,22.22116 22.1402436,22.19116 C22.2002436,22.09116 22.2302436,21.82116 22.1702436,21.56116 C22.1602436,21.50116 22.0102436,21.38116 21.9402436,21.31116 C21.8802436,21.26116 21.8202436,21.21116 21.7702436,21.16116 C20.5102436,19.90116 19.2502436,18.65116 17.9802436,17.38116 L16.6102436,16.02116 L17.0402436,15.57116 C17.1702436,15.43116 17.2902436,15.31116 17.4102436,15.19116 L17.7202436,14.87116 C19.1402436,13.45116 20.5602436,12.04116 21.9802436,10.62116 C22.4302436,10.18116 22.3902436,10.05116 22.1902436,9.84116005 C22.1202436,9.77116005 22.0302436,9.68116005 21.9402436,9.68116005 C21.9402436,9.68116005 21.9402436,9.68116005 21.9402436,9.68116005 C21.7902436,9.68116005 21.5602436,9.91116005 21.4402436,10.03116 C19.9102436,11.55116 18.3802436,13.07116 16.8502436,14.59116 C16.7202436,14.72116 16.5802436,14.84116 16.4302436,14.98116 C16.3602436,15.04116 16.2802436,15.11116 16.2002436,15.19116 L15.9602436,15.40116 L14.5902436,14.02116 C13.7102436,13.15116 12.8502436,12.29116 11.9902436,11.43116 L11.8102436,11.25116 C11.3402436,10.77116 10.8502436,10.28116 10.3502436,9.82116005 C10.2302436,9.70116005 10.1202436,9.66116005 10.0502436,9.66116005 Z" id="形状-2" fill="#FFFFFF" fill-rule="nonzero"></path>
            </g>
        </g>
    </g>
</svg>