<?xml version="1.0" standalone="no"?><!DOCTYPE svg PUBLIC "-//W3C//DTD SVG 1.1//EN" "http://www.w3.org/Graphics/SVG/1.1/DTD/svg11.dtd"><svg t="1652695328124" class="icon" viewBox="0 0 1024 1024" version="1.1" xmlns="http://www.w3.org/2000/svg" p-id="2643" xmlns:xlink="http://www.w3.org/1999/xlink" width="64" height="64"><defs><style type="text/css">@font-face { font-family: feedback-iconfont; src: url("//at.alicdn.com/t/font_1031158_u69w8yhxdu.woff2?t=1630033759944") format("woff2"), url("//at.alicdn.com/t/font_1031158_u69w8yhxdu.woff?t=1630033759944") format("woff"), url("//at.alicdn.com/t/font_1031158_u69w8yhxdu.ttf?t=1630033759944") format("truetype"); }
</style></defs><path d="M512 729.6V469.333333h42.666667v260.266667l98.133333-98.133333 29.866667 29.866666-106.666667 106.666667h170.666667c85.333333-8.533333 149.333333-81.066667 149.333333-170.666667 0-93.866667-76.8-170.666667-170.666667-170.666666h-4.266666c-21.333333-98.133333-106.666667-170.666667-209.066667-170.666667-119.466667 0-213.333333 93.866667-213.333333 213.333333-72.533333 8.533333-128 72.533333-128 149.333334C170.666667 699.733333 238.933333 768 320 768h170.666667L384 661.333333l29.866667-29.866666 98.133333 98.133333z m64 38.4l-42.666667 42.666667-42.666666-42.666667h-42.666667v42.666667h-128C213.333333 810.666667 128 725.333333 128 618.666667c0-85.333333 55.466667-157.866667 128-183.466667C273.066667 311.466667 379.733333 213.333333 512 213.333333c110.933333 0 209.066667 72.533333 243.2 170.666667 102.4 12.8 183.466667 102.4 183.466667 213.333333s-85.333333 200.533333-192 213.333334h-128v-42.666667h-42.666667z" fill="#4D9CF8" p-id="2644"></path></svg>