<?xml version="1.0" encoding="UTF-8"?>
<svg width="16px" height="16px" viewBox="0 0 16 16" version="1.1" xmlns="http://www.w3.org/2000/svg" xmlns:xlink="http://www.w3.org/1999/xlink">
    <title>基本</title>
    <g id="页面-1" stroke="none" stroke-width="1" fill="none" fill-rule="evenodd">
        <g id="画板" transform="translate(-83.000000, -54.000000)" fill="#666666" fill-rule="nonzero">
            <g id="基本" transform="translate(83.000000, 54.000000)">
                <path d="M2.30328151,12.9223431 C2.42312156,12.6723431 2.62285497,12.2023431 2.86253506,11.7423431 C3.18210851,11.1323431 2.99236177,10.7223431 2.34322819,10.7723431 C0.755347596,10.8823431 -0.133466072,10.3423431 0.0163339848,8.33234311 C0.0462939961,7.84234311 0.0163339848,7.34234311 0.0263206552,6.85234311 C0.0363073256,5.95234311 0.685440903,5.27234311 1.55428123,5.24234311 C1.71406796,5.24234311 1.87385468,5.26234311 2.03364141,5.24234311 C2.34322819,5.19234311 2.70274833,5.40234311 2.94242842,4.95234311 C3.18210851,4.51234311 2.82258837,4.32234311 2.72272167,4.02234311 C2.58290828,3.63234311 2.37318821,3.24234311 2.31326818,2.84234311 C2.22338815,2.21234311 2.51300159,1.71234311 3.02232178,1.38234311 C3.67145536,0.972343111 4.33057561,0.572343111 4.99968253,0.202343111 C5.76865615,-0.217656889 6.58756312,0.0323431114 7.0669233,0.802343111 C7.22671003,1.05234311 7.35653675,1.31234311 7.5063368,1.56234311 C7.78596358,2.05234311 8.2153904,2.05234311 8.50500385,1.54234311 C8.59488388,1.39234311 8.68476391,1.23234311 8.76465728,1.07234311 C9.39381751,-0.0476568886 10.1927511,-0.287656889 11.2713116,0.352343111 C11.8006051,0.662343111 12.3398853,0.972343111 12.8691788,1.31234311 C13.7080591,1.85234311 13.9377526,2.75234311 13.4783657,3.65234311 C13.348539,3.90234311 13.1987389,4.14234311 13.0689122,4.38234311 C12.8392188,4.82234311 13.0788989,5.23234311 13.5582591,5.24234311 C13.8578592,5.24234311 14.1574593,5.23234311 14.4570594,5.24234311 C15.2659797,5.27234311 15.9251,5.89234311 15.9650467,6.72234311 C16.01498,7.56234311 16.0049933,8.40234311 15.9750333,9.24234311 C15.9350866,10.0923431 15.3159131,10.7023431 14.4970061,10.7623431 C14.197406,10.7823431 13.8978059,10.7723431 13.5982058,10.7723431 C13.0389522,10.7823431 12.8591922,11.1623431 13.0988722,11.6923431 C13.3385523,12.1823431 13.5782324,12.6923431 13.6780991,13.2223431 C13.7879525,13.8223431 13.4583924,14.3123431 12.9690455,14.6223431 C12.3398853,15.0323431 11.7007384,15.4223431 11.0416181,15.7823431 C10.2526712,16.2223431 9.41379085,15.9723431 8.93443067,15.2023431 C8.77464395,14.9523431 8.64481723,14.6923431 8.49501718,14.4323431 C8.22537707,13.9623431 7.78596358,13.9523431 7.51632347,14.4223431 C7.35653675,14.6923431 7.22671003,14.9723431 7.05693663,15.2223431 C6.56758978,15.9823431 5.73869614,16.2123431 4.97970919,15.7923431 C4.32058894,15.4323431 3.68144203,15.0323431 3.04229512,14.6323431 C2.53297493,14.3123431 2.28330817,13.8123431 2.30328151,12.9223431 Z M12.7493388,2.73234311 C12.5795654,2.54234311 12.469712,2.35234311 12.2999386,2.23234311 C11.9304318,1.97234311 11.5409517,1.76234311 11.1614582,1.53234311 C10.0828978,0.872343111 10.0429511,0.852343111 9.47371088,1.99234311 C9.12417741,2.70234311 8.7247106,3.20234311 7.88583028,2.99234311 C7.80593692,2.97234311 7.72604355,2.98234311 7.64615019,2.99234311 C7.25667004,3.08234311 7.01698995,2.89234311 6.84721656,2.55234311 C6.66745649,2.20234311 6.47770975,1.86234311 6.27797634,1.52234311 C6.00833624,1.05234311 5.78862949,0.982343111 5.33922932,1.23234311 C4.78996245,1.55234311 4.24069557,1.88234311 3.70141537,2.22234311 C3.29196188,2.47234311 3.23204186,2.73234311 3.47172195,3.17234311 C3.66146869,3.55234311 3.88117544,3.91234311 4.08090885,4.29234311 C4.32058894,4.74234311 3.6914287,6.19234311 3.20208185,6.30234311 C3.09222848,6.32234311 2.9823751,6.31234311 2.87252173,6.31234311 C2.47305491,6.31234311 2.08357476,6.30234311 1.68410795,6.31234311 C1.32458781,6.32234311 1.06493438,6.48234311 1.06493438,6.90234311 C1.05494771,7.64234311 1.0249877,8.38234311 1.08490772,9.12234311 C1.09489439,9.32234311 1.36453449,9.54234311 1.5642679,9.67234311 C1.69409462,9.75234311 1.9038147,9.69234311 2.08357476,9.69234311 C3.4217886,9.69234311 3.43177527,9.68234311 4.06093551,10.9123431 C4.17078888,11.1223431 4.16080221,11.4623431 4.07092218,11.6823431 C3.91113545,12.1123431 3.64149535,12.4923431 3.43177527,12.8923431 C3.2520152,13.2323431 3.31193523,13.5323431 3.63150868,13.7423431 C4.2307089,14.1123431 4.82990913,14.4723431 5.43909603,14.8223431 C5.73869614,15.0023431 5.99834957,14.9023431 6.18809631,14.6223431 C6.28796301,14.4823431 6.3578697,14.3123431 6.45773641,14.1623431 C7.08689665,13.0823431 6.90713658,12.8423431 8.23536374,13.0123431 C8.26532376,13.0223431 8.30527044,13.0223431 8.33523045,13.0123431 C8.73469727,12.9223431 8.98436403,13.1123431 9.16412409,13.4823431 C9.33389749,13.8123431 9.52364423,14.1423431 9.71339097,14.4623431 C9.99301774,14.9623431 10.2027378,15.0323431 10.682098,14.7523431 C11.2213782,14.4423431 11.7506717,14.1223431 12.2799653,13.7923431 C12.7093921,13.5223431 12.7693121,13.2723431 12.5196454,12.8023431 C12.3298986,12.4423431 12.1201785,12.0923431 11.9304318,11.7323431 C11.6907517,11.2823431 12.2999386,9.82234311 12.7792988,9.70234311 C12.8791655,9.68234311 12.9990055,9.69234311 13.1088589,9.69234311 C13.4983391,9.69234311 13.8978059,9.69234311 14.2972727,9.69234311 C14.7067262,9.68234311 14.9464063,9.48234311 14.9563929,9.03234311 C14.9563929,8.34234311 14.9663796,7.64234311 14.9563929,6.95234311 C14.9464063,6.53234311 14.7266995,6.32234311 14.317246,6.32234311 C13.8778325,6.32234311 13.4284324,6.34234311 12.9890189,6.31234311 C12.8092588,6.29234311 12.5795654,6.19234311 12.469712,6.05234311 C11.650805,4.96234311 11.650805,4.78234311 12.3199119,3.56234311 C12.4597253,3.31234311 12.5795654,3.05234311 12.7493388,2.73234311 Z M7.96572364,10.7623431 C6.50766976,10.7523431 5.33922932,9.51234311 5.34921599,7.97234311 C5.35920266,6.44234311 6.54761644,5.23234311 8.02564367,5.24234311 C9.49368422,5.25234311 10.652138,6.49234311 10.652138,8.03234311 C10.6421513,9.56234311 9.45373754,10.7723431 7.96572364,10.7623431 Z M6.38782972,7.98234311 C6.38782972,8.91234311 7.11685666,9.68234311 8.00567032,9.68234311 C8.87451065,9.67234311 9.60353759,8.92234311 9.61352426,8.01234311 C9.62351093,7.09234311 8.88449732,6.32234311 7.99568365,6.32234311 C7.11685666,6.32234311 6.39781639,7.07234311 6.38782972,7.98234311 Z" id="1"></path>
            </g>
        </g>
    </g>
</svg>