<?xml version="1.0" encoding="UTF-8"?>
<svg width="14px" height="16px" viewBox="0 0 14 16" version="1.1" xmlns="http://www.w3.org/2000/svg" xmlns:xlink="http://www.w3.org/1999/xlink">
    <title>删除1</title>
    <g id="页面-1" stroke="none" stroke-width="1" fill="none" fill-rule="evenodd">
        <g id="画板" transform="translate(-611.000000, -232.000000)">
            <g id="删除1" transform="translate(611.000000, 232.000000)">
                <path d="M10.9265625,12.7796875 C10.9265625,13.25 10.54375,13.6328125 10.073875,13.6328125 L3.9265625,13.6328125 C3.45569427,13.6320898 3.07416025,13.2505557 3.0734375,12.7796875 L3.0734375,3.7234375 L10.9265625,3.7234375 L10.9265625,12.7796875 L10.9265625,12.7796875 Z M4.7796875,2.1921875 C4.7796875,2.09375 4.85625,2.0171875 4.9546875,2.0171875 L9.05625,2.0171875 C9.1546875,2.0171875 9.2308125,2.09375 9.2308125,2.1921875 L9.2308125,2.70625 L4.7796875,2.70625 L4.7796875,2.1921875 Z M13.4859375,2.70625 L10.2484375,2.70625 L10.2484375,2.1921875 C10.2484375,1.5359375 9.7125,1 9.05625,1 L4.9546875,1 C4.29685944,1.00144367 3.76394367,1.53435944 3.7625,2.1921875 L3.7625,2.70625 L0.5140625,2.70625 C0.2296875,2.70625 0,2.9359375 0,3.2203125 C0,3.5046875 0.2296875,3.734375 0.5140625,3.734375 L2.0453125,3.734375 L2.0453125,12.7796875 C2.0453125,13.8186732 2.88757681,14.6609375 3.9265625,14.6609375 L10.0734375,14.6609375 C11.1124232,14.6609375 11.9546875,13.8186732 11.9546875,12.7796875 L11.9546875,3.7234375 L13.4859375,3.7234375 C13.7703125,3.7234375 14,3.49375 14,3.209375 C14,2.925 13.7703125,2.70625 13.4859375,2.70625 Z M7,12.090625 C7.284375,12.090625 7.5140625,11.8609375 7.5140625,11.5765625 L7.5140625,6.1078125 C7.5140625,5.8234375 7.2848125,5.59375 7,5.59375 C6.715625,5.59375 6.4859375,5.8234375 6.4859375,6.1078125 L6.4859375,11.5765625 C6.4859375,11.8609375 6.715625,12.090625 7,12.090625 M4.6046875,12.090625 C4.8890625,12.090625 5.11875,11.8609375 5.11875,11.5765625 L5.11875,6.1078125 C5.11875,5.8234375 4.8890625,5.59375 4.6046875,5.59375 C4.3203125,5.59375 4.090625,5.8234375 4.090625,6.1078125 L4.090625,11.5765625 C4.1015625,11.8609375 4.33125,12.090625 4.6046875,12.090625 M9.3953125,12.090625 C9.6796875,12.090625 9.9098125,11.8609375 9.9098125,11.5765625 L9.9098125,6.1078125 C9.9098125,5.8234375 9.680125,5.59375 9.3953125,5.59375 C9.111375,5.59375 8.88125,5.8234375 8.88125,6.1078125 L8.88125,11.5765625 C8.88125,11.8609375 9.1109375,12.090625 9.3953125,12.090625" id="形状" fill="#FF5C5C" fill-rule="nonzero"></path>
                <rect id="矩形" x="0" y="0" width="14" height="16"></rect>
            </g>
        </g>
    </g>
</svg>