<?xml version="1.0" encoding="UTF-8"?>
<svg width="14px" height="14px" viewBox="0 0 14 14" version="1.1" xmlns="http://www.w3.org/2000/svg" xmlns:xlink="http://www.w3.org/1999/xlink">
    <title>疑问1</title>
    <g id="页面-1" stroke="none" stroke-width="1" fill="none" fill-rule="evenodd">
        <g id="画板" transform="translate(-504.000000, -100.000000)" fill="#4D9CF8" fill-rule="nonzero">
            <path d="M511.157495,100.000658 C514.911088,100.053155 518.034707,103.255466 517.999709,107.026494 C517.955961,110.928765 514.806092,114.026083 510.895006,113.999834 C507.062666,113.964836 503.965295,110.762525 504.000294,106.869004 C504.026543,103.045479 507.255158,99.9481607 511.157495,100.000658 Z M510.947503,109.581344 C510.536271,109.581344 510.247533,109.878827 510.256282,110.290053 C510.256282,110.692529 510.54502,110.990011 510.930004,110.990011 C511.314988,110.998761 511.638725,110.66628 511.629975,110.272554 C511.621225,109.878827 511.323738,109.581344 510.947503,109.581344 Z M511.069998,103.684191 C509.862549,103.675442 508.891339,104.401649 508.698847,105.442838 C508.620101,105.836564 508.786344,106.160295 509.11008,106.24779 C509.433817,106.352784 509.687556,106.195293 509.853799,105.810316 C509.958795,105.556581 510.055041,105.276597 510.212534,105.049111 C510.527521,104.594138 511.27999,104.532891 511.717471,104.900369 C512.154953,105.259098 512.172452,105.819065 511.74372,106.274039 C511.463732,106.580271 511.148745,106.851505 510.860007,107.148987 C510.501272,107.507716 510.31753,107.94519 510.335029,108.452661 C510.343779,108.785141 510.457524,109.038876 510.816259,109.082624 C511.183744,109.13512 511.376235,108.925133 511.428733,108.592652 C511.50748,108.12893 511.761219,107.7877 512.102455,107.490217 C512.391193,107.227733 512.671181,106.956499 512.924921,106.659016 C513.274906,106.25654 513.397401,105.775318 513.274906,105.241599 C513.056165,104.279156 512.22495,103.69294 511.069998,103.684191 Z" id="疑问1"></path>
        </g>
    </g>
</svg>