<?xml version="1.0" encoding="UTF-8"?>
<svg width="14px" height="14px" viewBox="0 0 14 14" version="1.1" xmlns="http://www.w3.org/2000/svg" xmlns:xlink="http://www.w3.org/1999/xlink">
    <title>疑问2</title>
    <g id="页面-1" stroke="none" stroke-width="1" fill="none" fill-rule="evenodd">
        <g id="画板" transform="translate(-530.000000, -100.000000)" fill="#3C87DF" fill-rule="nonzero">
            <path d="M537.157495,100.000658 C540.911088,100.053155 544.034707,103.255466 543.999709,107.026494 C543.955961,110.928765 540.806092,114.026083 536.895006,113.999834 C533.062666,113.964836 529.965295,110.762525 530.000294,106.869004 C530.026543,103.045479 533.255158,99.9481607 537.157495,100.000658 Z M536.947503,109.581344 C536.536271,109.581344 536.247533,109.878827 536.256282,110.290053 C536.256282,110.692529 536.54502,110.990011 536.930004,110.990011 C537.314988,110.998761 537.638725,110.66628 537.629975,110.272554 C537.621225,109.878827 537.323738,109.581344 536.947503,109.581344 Z M537.069998,103.684191 C535.862549,103.675442 534.891339,104.401649 534.698847,105.442838 C534.620101,105.836564 534.786344,106.160295 535.11008,106.24779 C535.433817,106.352784 535.687556,106.195293 535.853799,105.810316 C535.958795,105.556581 536.055041,105.276597 536.212534,105.049111 C536.527521,104.594138 537.27999,104.532891 537.717471,104.900369 C538.154953,105.259098 538.172452,105.819065 537.74372,106.274039 C537.463732,106.580271 537.148745,106.851505 536.860007,107.148987 C536.501272,107.507716 536.31753,107.94519 536.335029,108.452661 C536.343779,108.785141 536.457524,109.038876 536.816259,109.082624 C537.183744,109.13512 537.376235,108.925133 537.428733,108.592652 C537.50748,108.12893 537.761219,107.7877 538.102455,107.490217 C538.391193,107.227733 538.671181,106.956499 538.924921,106.659016 C539.274906,106.25654 539.397401,105.775318 539.274906,105.241599 C539.056165,104.279156 538.22495,103.69294 537.069998,103.684191 Z" id="疑问2"></path>
        </g>
    </g>
</svg>