<?xml version="1.0" encoding="UTF-8"?>
<svg width="14px" height="14px" viewBox="0 0 14 14" version="1.1" xmlns="http://www.w3.org/2000/svg" xmlns:xlink="http://www.w3.org/1999/xlink">
    <title>疑问</title>
    <g id="页面-1" stroke="none" stroke-width="1" fill="none" fill-rule="evenodd">
        <g id="画板" transform="translate(-479.000000, -100.000000)" fill="#4D9CF8" fill-rule="nonzero">
            <path d="M492.999709,107.026494 C492.955961,110.928765 489.806092,114.026083 485.895006,113.999834 C482.062666,113.964836 478.965295,110.762525 479.000294,106.869004 C479.026543,103.045479 482.255158,99.9481607 486.157495,100.000658 C489.911088,100.053155 493.034707,103.255466 492.999709,107.026494 Z M486.000001,113.019892 C489.307363,113.019892 492.01975,110.307552 492.01975,107.000246 C492.01975,103.684191 489.307363,100.971851 485.991252,100.980579 C482.68389,100.980579 479.971503,103.69294 479.971503,107.000246 C479.971503,110.307552 482.68389,113.019892 486.000001,113.019892 Z M486.069998,103.684191 C487.22495,103.69294 488.056165,104.279156 488.274906,105.241599 C488.397401,105.775318 488.274906,106.25654 487.924921,106.659016 C487.671181,106.956499 487.391193,107.227733 487.102455,107.490217 C486.761219,107.7877 486.50748,108.12893 486.428733,108.592652 C486.376235,108.925133 486.183744,109.13512 485.816259,109.082624 C485.457524,109.038876 485.343779,108.785141 485.335029,108.452661 C485.31753,107.94519 485.501272,107.507716 485.860007,107.148987 C486.148745,106.851505 486.463732,106.580271 486.74372,106.274039 C487.172452,105.819065 487.154953,105.259098 486.717471,104.900369 C486.27999,104.532891 485.527521,104.594138 485.212534,105.049111 C485.055041,105.276597 484.958795,105.556581 484.853799,105.810316 C484.687556,106.195293 484.433817,106.352784 484.11008,106.24779 C483.786344,106.160295 483.620101,105.836564 483.698847,105.442838 C483.891339,104.401649 484.862549,103.675442 486.069998,103.684191 Z M485.256282,110.290053 C485.247533,109.878827 485.536271,109.581344 485.947503,109.581344 C486.323738,109.581344 486.621225,109.878827 486.629975,110.272554 C486.638725,110.66628 486.314988,110.998761 485.930004,110.990011 C485.54502,110.990011 485.256282,110.692529 485.256282,110.290053 Z" id="疑问"></path>
        </g>
    </g>
</svg>