<?xml version="1.0" encoding="UTF-8"?>
<svg width="16px" height="16px" viewBox="0 0 16 16" version="1.1" xmlns="http://www.w3.org/2000/svg" xmlns:xlink="http://www.w3.org/1999/xlink">
    <title>输入栏</title>
    <g id="页面-1" stroke="none" stroke-width="1" fill="none" fill-rule="evenodd">
        <g id="画板" transform="translate(-381.000000, -230.000000)">
            <g id="输入栏" transform="translate(381.000000, 230.000000)">
                <rect id="矩形" x="0" y="0" width="16" height="16"></rect>
                <path d="M13.2159375,4.08 C13.1459375,3.95 13.0159375,3.87 12.8659375,3.87 L12.4659375,3.88 C12.4659375,2.82 12.5759375,1.56 14.4259375,0.46 L14.4459375,0.45 L14.4659375,0.43 C14.5459375,0.35 14.5659375,0.25 14.5259375,0.16 C14.4859375,0.06 14.3859375,-1.02584607e-13 14.2759375,-1.02584607e-13 L14.2659375,-1.02584607e-13 L14.2459375,-1.02584607e-13 C13.3359375,0.16 12.5459375,0.44 11.8959375,0.83 C11.3559375,1.16 10.9159375,1.56 10.5859375,2.04 C10.0659375,2.79 9.9359375,3.52 9.9159375,3.93 L9.4459375,3.94 C9.2759375,3.95 9.1259375,4.04 9.0459375,4.18 C8.9759375,4.32 8.9859375,4.49 9.0759375,4.62 L9.0759375,4.63 L10.6459375,6.72 C10.7559375,6.87 10.9359375,6.95 11.1259375,6.94 C11.2459375,6.94 11.3659375,6.9 11.4659375,6.84 C11.5159375,6.8 11.5659375,6.75 11.6059375,6.7 L13.1859375,4.54 L13.1959375,4.53 C13.2859375,4.39 13.2959375,4.22 13.2159375,4.08 L13.2159375,4.08 Z" id="形状-512-path" fill="#5A5A5A" fill-rule="nonzero"></path>
                <path d="M0.0075,3.685 C0.0075,3.075 -0.0025,2.465 0.0075,1.855 C0.0275,0.705 0.6775,0.025 1.8175,0.015 C3.0775,-0.005 4.3475,-0.005 5.6075,0.015 C6.7175,0.035 7.4075,0.715 7.4175,1.825 C7.4375,3.095 7.4375,4.355 7.4175,5.625 C7.3975,6.715 6.6975,7.415 5.5975,7.425 C4.3375,7.445 3.0675,7.445 1.8075,7.425 C0.7075,7.415 0.0275,6.715 0.0075,5.605 C-0.0025,4.965 0.0075,4.325 0.0075,3.685 Z M3.7175,1.135 C3.0775,1.135 2.4375,1.135 1.7975,1.135 C1.3375,1.145 1.1375,1.355 1.1375,1.815 C1.1275,3.085 1.1275,4.345 1.1375,5.605 C1.1375,6.075 1.3375,6.285 1.7975,6.285 C3.0575,6.295 4.3275,6.295 5.5875,6.285 C6.0775,6.285 6.2775,6.085 6.2775,5.595 C6.2775,4.345 6.2775,3.095 6.2775,1.845 C6.2775,1.335 6.0775,1.145 5.5475,1.135 C4.9375,1.135 4.3275,1.135 3.7175,1.135 Z M3.6975,15.995 C3.0775,15.995 2.4475,16.005 1.8275,15.995 C0.6875,15.975 0.0175,15.315 0.0075,14.165 C-0.0025,12.915 -0.0025,11.655 0.0075,10.415 C0.0175,9.275 0.7075,8.595 1.8375,8.575 C3.0875,8.565 4.3375,8.565 5.5875,8.575 C6.7075,8.595 7.4075,9.295 7.4175,10.425 C7.4375,11.675 7.4375,12.925 7.4175,14.175 C7.4075,15.285 6.7275,15.965 5.6175,15.995 C4.9775,16.015 4.3375,15.995 3.6975,15.995 Z M3.7275,14.875 C4.3575,14.875 4.9775,14.875 5.6075,14.865 C6.0675,14.865 6.2675,14.665 6.2775,14.195 C6.2775,12.935 6.2775,11.675 6.2775,10.405 C6.2775,9.925 6.0775,9.725 5.6175,9.725 C4.3375,9.715 3.0675,9.715 1.7875,9.725 C1.3475,9.725 1.1375,9.935 1.1375,10.365 C1.1275,11.645 1.1275,12.925 1.1375,14.205 C1.1375,14.665 1.3475,14.865 1.8175,14.865 C2.4575,14.875 3.0875,14.875 3.7275,14.875 Z M12.2675,15.995 C11.6375,15.995 11.0175,16.005 10.3875,15.995 C9.2575,15.975 8.5775,15.285 8.5675,14.155 C8.5575,12.915 8.5575,11.685 8.5675,10.445 C8.5775,9.295 9.2675,8.595 10.4175,8.575 C11.6675,8.565 12.9175,8.565 14.1675,8.575 C15.2775,8.595 15.9575,9.275 15.9775,10.385 C15.9975,11.655 15.9975,12.915 15.9775,14.185 C15.9675,15.325 15.2875,15.975 14.1375,15.995 C13.5075,16.005 12.8875,15.995 12.2675,15.995 Z M9.7075,12.275 C9.7075,12.915 9.6975,13.555 9.7075,14.195 C9.7175,14.665 9.9175,14.865 10.3775,14.865 C11.6375,14.875 12.8975,14.875 14.1675,14.865 C14.6275,14.865 14.8475,14.665 14.8475,14.215 C14.8575,12.935 14.8575,11.655 14.8475,10.375 C14.8475,9.935 14.6375,9.725 14.2075,9.725 C12.9275,9.715 11.6475,9.715 10.3675,9.725 C9.9075,9.725 9.7175,9.925 9.7075,10.405 C9.6975,11.025 9.7075,11.645 9.7075,12.275 Z" id="智能icon" fill="#5A5A5A" fill-rule="nonzero"></path>
            </g>
        </g>
    </g>
</svg>