<?xml version="1.0" encoding="UTF-8"?>
<svg width="16px" height="16px" viewBox="0 0 16 16" version="1.1" xmlns="http://www.w3.org/2000/svg" xmlns:xlink="http://www.w3.org/1999/xlink">
    <title>按键设置</title>
    <g id="页面-1" stroke="none" stroke-width="1" fill="none" fill-rule="evenodd">
        <g id="画板" transform="translate(-381.000000, -148.000000)">
            <g id="按键设置" transform="translate(381.000000, 148.000000)">
                <rect id="矩形" x="0" y="0" width="16" height="16"></rect>
                <path d="M8.06,4.33680869e-19 C9.71,4.33680869e-19 11.36,4.33680869e-19 13.01,4.33680869e-19 C14.82,0.01 16,1.25 16,3.15 C16,5.99 16,8.83 16,11.66 C15.99,13.75 14.81,15 12.82,15 C9.59,15 6.36,15 3.12,15 C1.25,15 3.95516953e-16,13.69 3.95516953e-16,11.71 C-0.01,8.83 3.95516953e-16,5.95 3.95516953e-16,3.07 C3.95516953e-16,1.38 1.28,0.02 2.91,0.01 C4.62,-0.01 6.34,4.33680869e-19 8.06,4.33680869e-19 Z M7.96,13.69 C9.67,13.69 11.39,13.7 13.11,13.68 C14.08,13.67 14.75,13.01 14.75,12 C14.77,9.02 14.77,6.04 14.75,3.06 C14.75,1.98 14.07,1.32 13.04,1.32 C9.67,1.31 6.3,1.31 2.94,1.32 C1.89,1.32 1.23,2.01 1.23,3.11 C1.22,6 1.22,8.9 1.23,11.79 C1.23,13.03 1.86,13.68 3.05,13.69 C4.68,13.69 6.32,13.69 7.96,13.69 Z M10.92,9.11 C10.92,8.35 10.92,7.65 10.92,6.95 C10.92,6.36 10.91,5.77 10.94,5.18 C10.96,4.78 11.23,4.54 11.6,4.53 C11.95,4.52 12.3,4.82 12.3,5.19 C12.31,6.77 12.31,8.34 12.3,9.92 C12.3,10.23 12.12,10.44 11.84,10.53 C11.72,10.57 11.6,10.59 11.48,10.59 C10.55,10.6 9.63,10.6 8.7,10.59 C8.13,10.58 7.87,10.32 7.88,9.84 C7.89,9.37 8.18,9.12 8.73,9.11 C9.44,9.11 10.15,9.11 10.92,9.11 Z M8.34,5.89 C7.66,5.89 7.34,5.65 7.34,5.15 C7.34,4.66 7.68,4.41 8.35,4.41 C9.13,4.41 9.44,4.69 9.34,5.3 C9.27,5.74 9.01,5.89 8.34,5.89 Z M4.78,9.12 C4.91,9.12 5.05,9.1 5.18,9.12 C5.53,9.19 5.76,9.4 5.78,9.8 C5.8,10.18 5.63,10.47 5.26,10.53 C4.98,10.59 4.67,10.59 4.39,10.56 C3.93,10.51 3.75,10.25 3.77,9.8 C3.8,9.38 4.06,9.13 4.49,9.11 C4.59,9.11 4.68,9.11 4.78,9.11 C4.78,9.12 4.78,9.12 4.78,9.12 Z M4.75,5.88 C4.61,5.88 4.48,5.9 4.35,5.88 C4.01,5.83 3.78,5.66 3.77,5.26 C3.77,4.89 3.98,4.59 4.32,4.55 C4.6,4.52 4.88,4.52 5.16,4.54 C5.56,4.56 5.78,4.79 5.78,5.15 C5.79,5.52 5.54,5.83 5.19,5.88 C5.04,5.9 4.89,5.88 4.75,5.88 C4.75,5.88 4.75,5.88 4.75,5.88 Z" id="按键icon" fill="#5A5A5A" fill-rule="nonzero"></path>
            </g>
        </g>
    </g>
</svg>