<?xml version="1.0" encoding="UTF-8"?>
<svg width="16px" height="16px" viewBox="0 0 16 16" version="1.1" xmlns="http://www.w3.org/2000/svg" xmlns:xlink="http://www.w3.org/1999/xlink">
    <title>拼音</title>
    <g id="页面-1" stroke="none" stroke-width="1" fill="none" fill-rule="evenodd">
        <g id="画板" transform="translate(-381.000000, -61.000000)">
            <g id="拼音" transform="translate(381.000000, 61.000000)">
                <rect id="矩形" x="0" y="0" width="16" height="16"></rect>
                <path d="M8.74532614,13.7304828 C9.26532614,14.2104828 9.78532614,14.6804828 10.2953261,15.1504828 C9.95532614,15.5004828 9.69532614,15.7604828 9.46532614,16.0004828 C8.51532614,15.0104828 7.53532614,13.9904828 6.58532614,13.0004828 C7.46532614,12.1004828 8.37532614,11.1604828 9.31532614,10.2104828 C9.54532614,10.4304828 9.80532614,10.7004828 10.1153261,11.0204828 C9.65532614,11.4704828 9.20532614,11.8904828 8.77532614,12.3104828 C8.81532614,12.3704828 8.82532614,12.4204828 8.84532614,12.4204828 C10.1053261,12.3804828 11.3953261,12.4904828 12.6153261,12.2604828 C13.9853261,12.0004828 14.8753261,10.6304828 14.8653261,9.25048282 C14.8553261,7.80048282 13.9453261,6.21232466 12.5953261,5.81232466 C12.2953261,5.73232466 12.1853261,5.59232466 12.1153261,5.28232466 C11.6253261,3.23232466 9.88532614,1.81232466 7.94532614,1.86232466 C5.93532614,1.91232466 4.31532614,3.32232466 3.85532614,5.38232466 C3.82532614,5.53232466 3.64532614,5.73232466 3.49532614,5.78232466 C1.91532614,6.30232466 0.945326144,8.07048282 1.16532614,9.63048282 C1.41532614,11.3404828 2.70532614,12.4404828 4.44532614,12.4504828 C4.62532614,12.4504828 4.81532614,12.4504828 5.03532614,12.4504828 C5.03532614,12.8504828 5.03532614,13.2104828 5.03532614,13.5704828 C2.89532614,13.9004828 0.845326144,12.6104828 0.205326144,10.5404828 C-0.444673856,8.41048282 0.485326144,5.93232466 2.47532614,4.90232466 C2.66532614,4.80232466 2.86532614,4.59232466 2.94532614,4.38232466 C3.73532614,2.18232466 5.68532614,0.732324664 7.91532614,0.702324664 C10.1953261,0.672324664 12.1653261,2.04232466 12.9953261,4.26232466 C13.1153261,4.59232466 13.2853261,4.80232466 13.6153261,4.96232466 C15.4353261,5.92232466 16.3453261,8.23048282 15.8853261,10.2304828 C15.4353261,12.2004828 13.7253261,13.5904828 11.6853261,13.6204828 C10.7253261,13.6304828 9.76532614,13.6204828 8.79532614,13.6204828 C8.78532614,13.6504828 8.76532614,13.6904828 8.74532614,13.7304828 Z" id="拼音icon" fill="#5A5A5A" fill-rule="nonzero"></path>
            </g>
        </g>
    </g>
</svg>