<?xml version="1.0" encoding="UTF-8"?>
<svg width="16px" height="16px" viewBox="0 0 16 16" version="1.1" xmlns="http://www.w3.org/2000/svg" xmlns:xlink="http://www.w3.org/1999/xlink">
    <title>其他设置</title>
    <g id="页面-1" stroke="none" stroke-width="1" fill="none" fill-rule="evenodd">
        <g id="画板" transform="translate(-381.000000, -173.000000)">
            <g id="其他设置" transform="translate(381.000000, 173.000000)">
                <rect id="矩形" x="0" y="0" width="16" height="16"></rect>
                <path d="M11.3673858,14.4990369 C11.6894692,14.4990369 11.8827191,14.4024119 12.0544969,14.1340092 C13.1740464,12.1787794 14.1990028,10.2721486 15.2670068,8.2076761 C15.4065763,7.99295389 15.3966141,7.83666189 15.2670068,7.60645391 C14.1063071,5.54482262 13.1581353,3.60137923 12.0222886,1.60496807 C11.8827191,1.36877363 11.7324136,1.27214864 11.4318025,1.27214864 C8.98396928,1.28288475 7.19658537,1.28288475 4.75948826,1.27214864 C4.45887716,1.27214864 4.2978355,1.35803752 4.14752995,1.59423196 C3.16734335,3.29147003 0.937263634,7.28150156 0.759421947,7.56350946 C0.59728348,7.82061639 0.619852509,8.01442611 0.770158058,8.25062054 C1.99407467,10.2153288 2.94508556,12.1693009 4.13679384,14.1447453 C4.30857161,14.413148 4.5018216,14.4990369 4.82390492,14.4990369 C6.0156132,14.4775647 10.120433,14.4990369 11.3673858,14.4990369 Z" id="形状-15-path" stroke="#5A5A5A" stroke-width="1.2" stroke-linejoin="bevel" fill-rule="nonzero"></path>
                <path d="M8.02541415,10.2721486 C9.40612602,10.2721486 10.5254141,9.15286051 10.5254141,7.77214864 C10.5254141,6.39143676 9.40612602,5.27214864 8.02541415,5.27214864 C6.64470227,5.27214864 5.52541415,6.39143676 5.52541415,7.77214864 C5.52541415,9.15286051 6.64470227,10.2721486 8.02541415,10.2721486 Z" id="椭圆形" stroke="#5A5A5A" stroke-width="1.2"></path>
            </g>
        </g>
    </g>
</svg>