<?xml version="1.0" encoding="UTF-8"?>
<svg width="16px" height="16px" viewBox="0 0 16 16" version="1.1" xmlns="http://www.w3.org/2000/svg" xmlns:xlink="http://www.w3.org/1999/xlink">
    <title>外观</title>
    <g id="页面-1" stroke="none" stroke-width="1" fill="none" fill-rule="evenodd">
        <g id="画板" transform="translate(-83.000000, -142.000000)" fill="#666666" fill-rule="nonzero">
            <g id="外观" transform="translate(83.000000, 142.000000)">
                <path d="M8.63,12.08 C8.63,12.99 8.63,13.84 8.63,14.73 C8.78,14.74 8.92,14.75 9.06,14.75 C10.55,14.75 12.03,14.75 13.51,14.75 C13.6,14.75 13.7,14.75 13.79,14.75 C14.32,14.77 14.58,15 14.57,15.4 C14.56,15.79 14.29,15.8890157 13.78,15.8890157 C9.84,15.8890157 5.91,15.8890157 1.97,15.8890157 C1.45,15.8890157 1.19,15.8 1.17,15.41 C1.16,15.11 1.29,14.89 1.59,14.81 C1.77,14.76 1.96,14.76 2.14,14.76 C3.87,14.75 5.70294218,14.75 7.46294218,14.75 C7.46294218,13.87 7.46294218,13 7.46294218,12.08 C7.28294218,12.08 7.02,12.08 6.86,12.08 C4.83,12.08 2.8,12.08 0.77,12.08 C0.2,12.08 0,11.89 0,11.32 C0,7.81 0,4.3 0,0.79 C0,0.21 0.21,0 0.8,0 C5.59,0 10.38,0 15.17,0 C15.79,0 16,0.21 16,0.81 C16,4.31 16,7.8 16,11.3 C16,11.89 15.8,12.08 15.2,12.08 C13.19,12.08 11.17,12.08 9.15,12.08 C9,12.08 8.84,12.08 8.63,12.08 Z M1.07835323,10.9729989 C5.75194374,10.9729989 10.2637127,10.9729989 14.9269174,10.9729989 C14.9269174,7.62226824 14.9269174,4.43552462 14.9269174,1.10567076 C10.2429412,1.10567076 5.75194374,1.10567076 1.07835323,1.10567076 C1.07835323,4.44596303 1.07835323,7.63270666 1.07835323,10.9729989 Z M8.3,5.9813929 C8.3,6.90123522 8.3,7.82107753 8.3,8.74091984 C8.3,9.21003942 8.12926829,9.44 7.80406504,9.44 C7.47073171,9.44 7.3,9.200841 7.3,8.74091984 C7.3,6.87363995 7.3,5.00636005 7.3,3.13908016 C7.3,2.679159 7.47886179,2.44 7.80406504,2.44 C8.12926829,2.44 8.3,2.679159 8.3,3.14827858 C8.3,4.08651774 8.3,5.03395532 8.3,5.9813929 Z M11.36,6.91440273 C11.36,6.30006826 11.36,5.68573379 11.36,5.07139932 C11.3681466,4.67037543 11.5473727,4.44853242 11.856945,4.44 C12.1583707,4.44 12.35389,4.65331058 12.35389,5.06286689 C12.3620367,6.31713311 12.3620367,7.56286689 12.35389,8.81713311 C12.35389,9.23522184 12.174664,9.44 11.856945,9.44 C11.5310794,9.44 11.36,9.22668942 11.36,8.79153584 C11.36,8.16013652 11.36,7.53726962 11.36,6.91440273 Z M3.27,7.44942676 C3.27,6.97723877 3.27,6.51430936 3.27,6.04212137 C3.27828157,5.67177784 3.47703934,5.44031314 3.77517598,5.44031314 C4.04846791,5.44957172 4.25550725,5.67177784 4.26378882,6.0143456 C4.27207039,6.96798018 4.27207039,7.92161476 4.26378882,8.86599075 C4.25550725,9.23633428 4.04846791,9.4492818 3.74204969,9.44002322 C3.45219462,9.43076463 3.27828157,9.2178171 3.27,8.85673216 C3.27,8.38454417 3.27,7.92161476 3.27,7.44942676 Z" id="3"></path>
            </g>
        </g>
    </g>
</svg>