<?xml version="1.0" encoding="UTF-8"?>
<svg width="16px" height="15px" viewBox="0 0 16 15" version="1.1" xmlns="http://www.w3.org/2000/svg" xmlns:xlink="http://www.w3.org/1999/xlink">
    <title>状态栏</title>
    <g id="页面-1" stroke="none" stroke-width="1" fill="none" fill-rule="evenodd">
        <g id="画板" transform="translate(-381.000000, -202.000000)" fill="#5A5A5A" fill-rule="nonzero">
            <g id="状态栏" transform="translate(381.000000, 202.000000)">
                <path d="M16,2.41 C16,1.28 14.92,0 13.6,0 L2.4,0 C1.07,0 0,1.28 0,2.41 L0,12.96 C0,14.09 1.08,15 2.4,15 L13.6,15 C14.93,15 16,14.09 16,12.96 L16,2.41 Z M1.55,1.51 C1.78,1.32 2.09,1.21 2.41,1.22 L13.61,1.22 C14.27,1.22 14.81,1.85 14.81,2.42 L14.81,7 L13.86,7 L12.83,6.12 C12.6,5.93 12.22,5.93 11.99,6.12 C11.92,6.18 11.87,6.25 11.84,6.32 L11.11,8.22 L9.73,5.24 C9.58,4.99 9.22,4.89 8.92,5.01 C8.79,5.07 8.69,5.16 8.63,5.28 L6.92,8.99 L5.38,3.28 C5.29,3.01 4.95,2.85 4.64,2.93 C4.47,2.97 4.34,3.06 4.27,3.2 L2.04,6.99 L1.21,6.99 L1.21,2.6 C1.19,2.33 1.33,1.7 1.55,1.51 L1.55,1.51 Z M14.51,13.62 C14.37,13.76 13.92,13.8 13.6,13.8 L2.4,13.8 C2.08,13.8 1.78,13.7 1.54,13.51 C1.31,13.32 1.19,13.06 1.19,12.78 L1.19,8.02 L2.4,8.02 C2.62,8.02 2.83,7.91 2.93,7.73 L4.64,4.83 L6.24,10.71 C6.31,10.92 6.53,11.07 6.79,11.08 L6.81,11.08 C7.06,11.08 7.28,10.96 7.37,10.76 L9.24,6.71 L10.67,9.77 C10.81,10.02 11.17,10.12 11.47,10 C11.62,9.94 11.73,9.83 11.78,9.7 L12.67,7.43 L13.18,7.87 C13.3,7.96 13.45,8.02 13.61,8.02 L14.8,8.02 L14.8,12.78 C14.8,13.05 14.62,13.53 14.53,13.61 L14.51,13.62 Z" id="形状-512"></path>
            </g>
        </g>
    </g>
</svg>