<?xml version="1.0" encoding="UTF-8"?>
<svg width="16px" height="16px" viewBox="0 0 16 16" version="1.1" xmlns="http://www.w3.org/2000/svg" xmlns:xlink="http://www.w3.org/1999/xlink">
    <title>词库</title>
    <g id="页面-1" stroke="none" stroke-width="1" fill="none" fill-rule="evenodd">
        <g id="画板" transform="translate(-83.000000, -186.000000)" fill="#666666" fill-rule="nonzero">
            <g id="词库" transform="translate(83.000000, 186.000000)">
                <path d="M14.9644444,6.46561063 C14.9644444,7.70561063 14.9944444,8.94561063 14.9544444,10.1756106 C14.9444444,10.5656106 14.8544444,11.0256106 14.6244444,11.3156106 C13.4644444,12.7356106 12.2644444,14.1156106 11.0544444,15.4956106 C10.7244444,15.8656106 10.2744444,16.1156106 9.72444444,15.8956106 C9.20444444,15.6856106 8.97444444,15.2556106 8.96444444,14.7356106 C8.95444444,13.7556106 8.93444444,12.7656106 9.00444444,11.7856106 C9.05444444,11.1256106 9.42444444,10.8156106 10.1044444,10.7256106 C10.3844444,10.6856106 10.6744444,10.6756106 10.9644444,10.6556106 C11.9044444,10.6056106 12.8444444,10.5556106 13.7844444,10.4956106 C13.8244444,9.57561063 13.8744444,8.64561063 13.8844444,7.72561063 C13.9044444,6.16561063 13.8744444,4.60561063 13.9044444,3.04561063 C13.9144444,1.99561063 13.4544444,1.30561063 12.4644444,1.24561063 C12.1144444,1.22561063 11.9444444,0.97561063 12.0044444,0.64561063 C12.0644444,0.24561063 12.3744444,0.14561063 12.7344444,0.17561063 C13.9944444,0.28561063 14.9444444,1.30561063 14.9644444,2.59561063 C14.9844444,3.88561063 14.9644444,5.17561063 14.9644444,6.46561063 Z M12.8544444,11.8956106 C12.8344444,11.8556106 12.8044444,11.8156106 12.7844444,11.7756106 C11.9744444,11.7756106 11.1744444,11.7656106 10.3644444,11.7956106 C10.2644444,11.7956106 10.0844444,11.9656106 10.0744444,12.0556106 C10.0544444,12.9556106 10.0644444,13.8656106 10.0644444,14.7656106 C10.1144444,14.7856106 10.1644444,14.8056106 10.2144444,14.8356106 C11.0944444,13.8556106 11.9744444,12.8756106 12.8544444,11.8956106 Z M1.00444444,8.08561063 C1.00444444,6.28561063 0.994444444,4.48561063 1.00444444,2.68561063 C1.01444444,1.34561063 1.86444444,0.37561063 3.15444444,0.19561063 C3.62444444,0.12561063 3.95444444,0.29561063 3.97444444,0.65561063 C4.01444444,1.08561063 3.73444444,1.22561063 3.34444444,1.28561063 C2.51444444,1.41561063 2.12444444,1.88561063 2.12444444,2.75561063 C2.12444444,6.28561063 2.12444444,9.81561063 2.12444444,13.3456106 C2.12444444,14.3756106 2.63444444,14.8956106 3.69444444,14.8956106 C4.97444444,14.9156106 6.25444444,14.9056106 7.52444444,14.8956106 C7.92444444,14.8956106 8.28444444,14.9656106 8.27444444,15.4456106 C8.26444444,15.9156106 7.90444444,15.9856106 7.51444444,15.9856106 C6.18444444,15.9856106 4.85444444,16.0056106 3.52444444,15.9856106 C2.05444444,15.9656106 1.02444444,14.9556106 1.01444444,13.4756106 C0.994444444,11.6856106 1.00444444,9.88561063 1.00444444,8.08561063 Z M7.98444444,9.28561063 C6.67444444,9.28561063 5.36444444,9.28561063 4.05444444,9.29561063 C3.66444444,9.29561063 3.30444444,9.23561063 3.29444444,8.75561063 C3.28444444,8.28561063 3.62444444,8.19561063 4.02444444,8.19561063 C6.67444444,8.19561063 9.31444444,8.19561063 11.9544444,8.19561063 C12.3544444,8.19561063 12.6944444,8.28561063 12.6844444,8.75561063 C12.6744444,9.24561063 12.3144444,9.29561063 11.9244444,9.29561063 C10.6144444,9.28561063 9.30444444,9.28561063 7.98444444,9.28561063 Z M7.93444444,6.45561063 C6.62444444,6.45561063 5.31444444,6.44561063 4.00444444,6.45561063 C3.62444444,6.45561063 3.29444444,6.37561063 3.29444444,5.92561063 C3.28444444,5.48561063 3.59444444,5.36561063 3.98444444,5.36561063 C6.65444444,5.36561063 9.32444444,5.36561063 12.0044444,5.36561063 C12.3844444,5.36561063 12.6944444,5.48561063 12.6844444,5.93561063 C12.6744444,6.38561063 12.3444444,6.45561063 11.9744444,6.45561063 C10.6244444,6.44561063 9.28444444,6.45561063 7.93444444,6.45561063 Z M7.95444444,3.78561063 C7.38444444,3.74561063 6.85444444,3.49561063 6.53444444,2.95561063 C6.42444444,2.77561063 6.46444444,2.40561063 6.59444444,2.23561063 C6.79444444,1.98561063 7.09444444,2.03561063 7.35444444,2.26561063 C7.98444444,2.83561063 8.09444444,2.83561063 8.70444444,2.28561063 C8.94444444,2.06561063 9.20444444,1.99561063 9.46444444,2.21561063 C9.75444444,2.46561063 9.71444444,2.74561063 9.51444444,3.02561063 C9.18444444,3.47561063 8.55444444,3.79561063 7.95444444,3.78561063 Z M6.52444444,0.81561063 C6.52444444,1.37561063 6.31444444,1.67561063 5.93444444,1.62561063 C5.42444444,1.56561063 5.42444444,1.18561063 5.42444444,0.79561063 C5.43444444,0.42561063 5.42444444,0.0556106297 5.92444444,0.0156106297 C6.32444444,-0.0243893703 6.52444444,0.24561063 6.52444444,0.81561063 Z M10.5644444,0.89561063 C10.5744444,1.21561063 10.5244444,1.54561063 10.0944444,1.61561063 C9.75444444,1.67561063 9.55444444,1.47561063 9.47444444,1.15561063 C9.34444444,0.63561063 9.49444444,0.15561063 9.81444444,0.0456106297 C10.2844444,-0.12438937 10.5744444,0.18561063 10.5644444,0.89561063 Z" id="4"></path>
            </g>
        </g>
    </g>
</svg>